<!--  <?xml version="1.0" encoding="utf-8"?> -->
<!-- Generator: Adobe Illustrator 27.0.1, SVG Export Plug-In . SVG Version: 6.00 Build 0)  -->
<svg version="1.1" xmlns="http://www.w3.org/2000/svg" xmlns:xlink="http://www.w3.org/1999/xlink" x="0px" y="0px"
	 viewBox="0 0 500 500" style="enable-background:new 0 0 500 500;" xml:space="preserve">
<g id="Capa_1">
	<image overflow="visible" width="500" height="513" xlink:href="images/Arbol.png" >	 
<style type="text/css">
	.st0{opacity:0.1;fill:none;}
	.st1{fill:#E6C293;}
	.st2{fill:#FFF0D9;}
	.st3{fill:#FFFFFF;}
	.st4{fill:#8A232F;}
	.st5{fill:#B87F4B;}
	.st6{fill:#CF8E54;}
	.st7{fill:#A16F43;}
	.st8{opacity:0.5;fill:#7F7F7F;}
	.st9{fill:#6E1E27;}
	.st10{opacity:0.5;fill:#8A232F;}
	.st11{fill:#581A21;}
	.st12{fill:#58886B;}
	
		.st13{clip-path:url(#SVGID_00000057851185977056075650000015521449096261782461_);fill:none;stroke:#8A232F;stroke-width:4.7744;stroke-miterlimit:10;}
	.st14{opacity:0.5;fill:#426650;}
	.st15{clip-path:url(#SVGID_00000181791255360158385430000004652951704948366492_);}
	.st16{opacity:0.7;fill:#CF8E54;}
	.st17{clip-path:url(#SVGID_00000145762618926424934320000008405464770330259377_);}
	.st18{opacity:0.5;fill:#CF8E54;}
	.st19{fill:#452516;}
	.st20{opacity:0.5;fill:#452516;}
	.st21{fill:#1F3633;}
	.st22{fill:#213B37;}
	.st23{fill:#274540;}
	.st24{fill:#294943;}
	.st25{opacity:0.4;clip-path:url(#SVGID_00000144313312351727929240000006296931087926811059_);fill:#274540;}
	.st26{fill:#30554E;}
	.st27{fill:#335952;}
	.st28{opacity:0.4;clip-path:url(#SVGID_00000057867430954487434440000004667319037353690532_);fill:#30554E;}
	.st29{fill:#38645B;}
	.st30{fill:#3C6B61;}
	.st31{fill:#EECF6B;}
	.st32{opacity:0.4;fill:#EECF6B;}
	.st33{fill:#892F14;}
	.st34{opacity:0.5;fill:#892F14;}
	.st35{opacity:0.5;fill:#38645B;}
	.st36{opacity:0.5;fill:#FFFFFF;}
	.st37{opacity:0.3;fill:#FFFFFF;}
	.st38{opacity:0.5;clip-path:url(#SVGID_00000093879968297225670500000008041005559640569495_);fill:#892F14;}
	.st39{fill:#AD7746;}
	.st40{fill:#8A5F38;}
	.st41{fill:#6E1C25;}
	
		.st42{clip-path:url(#SVGID_00000080894174082845500910000007518545275394999187_);fill:none;stroke:#FFFFFF;stroke-width:1.2432;stroke-miterlimit:10;}
	.st43{opacity:0.4;fill:#8A232F;}
	.st44{fill:#77AA8A;}
	.st45{fill:#80B394;}
	.st46{font-family:'Broadway';}
	.st47{font-size:13.845px;}
	.st48{fill:#061606;}
</style>
<g id="botones">
	<ellipse id="btn_x5F_vino" class="st0" cx="169.92" cy="309" rx="51.01" ry="31.78"/>
	
		<ellipse id="btn_x5F_flor_00000150097333430151481650000005625838917140144036_" class="st0" cx="321.77" cy="300.77" rx="45.63" ry="30.48"/>
	
		<ellipse id="btn_x5F_flor_00000073713580358401444020000014446511972165601464_" class="st0" cx="439.78" cy="376.7" rx="50.71" ry="31.87"/>
	
		<ellipse id="btn_x5F_flor_00000003823029300244230110000016156354544873812889_" class="st0" cx="304.01" cy="42.46" rx="57.6" ry="30.48"/>
	
		<ellipse id="btn_x5F_flor_00000134208368704243604550000000320812609637687993_" class="st0" cx="181.12" cy="103.41" rx="62.97" ry="34.29"/>
</g>
<g id="pino">
	<g>
		<path class="st1" d="M296.18,430.17h-84.72c0,0-195.61-6.58-183.38,13.17c12.23,19.75,76.18,12.23,63.95,19.75
			c-12.23,7.52,32.92,13.17,124.14,14.11c8.85,0.09,17.91,0.2,27.04,0.31v0.24c3.54-0.04,7.08-0.08,10.62-0.12
			c3.54,0.04,7.08,0.08,10.62,0.12v-0.24c9.13-0.11,18.18-0.22,27.04-0.31c91.22-0.94,136.36-6.58,124.14-14.11
			c-12.23-7.52,51.72,0,63.95-19.75C491.79,423.58,296.18,430.17,296.18,430.17z"/>
		<path class="st2" d="M421.34,435.19c34.14-39.09,54.83-90.22,54.83-146.19c0-122.8-99.55-222.35-222.35-222.35
			S31.48,166.2,31.48,289c0,55.97,20.69,107.11,54.83,146.19H421.34z"/>
		<g>
			<g>
				<g>
					<g>
						<path class="st1" d="M127.7,261.78c0.75,1.42,1.15,2.84,1.43,4.26c0.27,1.42,0.39,2.84,0.39,4.26c0,1.42-0.12,2.84-0.39,4.26
							c-0.28,1.42-0.67,2.84-1.43,4.26c-0.76-1.42-1.15-2.84-1.43-4.26c-0.27-1.42-0.39-2.84-0.39-4.26c0-1.42,0.13-2.84,0.39-4.26
							C126.56,264.62,126.95,263.2,127.7,261.78z"/>
					</g>
					<g>
						<path class="st1" d="M136.22,270.3c-1.42,0.75-2.84,1.15-4.26,1.43c-1.42,0.27-2.84,0.39-4.26,0.39
							c-1.42,0-2.84-0.12-4.26-0.39c-1.42-0.28-2.84-0.67-4.26-1.43c1.42-0.76,2.84-1.15,4.26-1.43c1.42-0.27,2.84-0.39,4.26-0.39
							c1.42,0,2.84,0.13,4.26,0.39C133.38,269.15,134.8,269.54,136.22,270.3z"/>
					</g>
				</g>
			</g>
			<g>
				<g>
					<g>
						<path class="st1" d="M308.33,108.17c0.75,1.42,1.15,2.84,1.43,4.26c0.27,1.42,0.39,2.84,0.39,4.26c0,1.42-0.12,2.84-0.39,4.26
							c-0.28,1.42-0.67,2.84-1.43,4.26c-0.76-1.42-1.15-2.84-1.43-4.26c-0.27-1.42-0.39-2.84-0.39-4.26c0-1.42,0.13-2.84,0.39-4.26
							C307.19,111.01,307.58,109.59,308.33,108.17z"/>
					</g>
					<g>
						<path class="st1" d="M316.85,116.68c-1.42,0.75-2.84,1.15-4.26,1.43c-1.42,0.27-2.84,0.39-4.26,0.39
							c-1.42,0-2.84-0.12-4.26-0.39c-1.42-0.28-2.84-0.67-4.26-1.43c1.42-0.76,2.84-1.15,4.26-1.43c1.42-0.27,2.84-0.39,4.26-0.39
							c1.42,0,2.84,0.13,4.26,0.39C314.01,115.54,315.43,115.93,316.85,116.68z"/>
					</g>
				</g>
			</g>
			<g>
				<g>
					<g>
						<path class="st1" d="M382.46,302.19c0.75,1.42,1.15,2.84,1.43,4.26c0.27,1.42,0.39,2.84,0.39,4.26c0,1.42-0.12,2.84-0.39,4.26
							c-0.28,1.42-0.67,2.84-1.43,4.26c-0.76-1.42-1.15-2.84-1.43-4.26c-0.27-1.42-0.39-2.84-0.39-4.26c0-1.42,0.13-2.84,0.39-4.26
							C381.32,305.02,381.71,303.6,382.46,302.19z"/>
					</g>
					<g>
						<path class="st1" d="M390.98,310.7c-1.42,0.75-2.84,1.15-4.26,1.43c-1.42,0.27-2.84,0.39-4.26,0.39
							c-1.42,0-2.84-0.12-4.26-0.39c-1.42-0.28-2.84-0.67-4.26-1.43c1.42-0.76,2.84-1.15,4.26-1.43c1.42-0.27,2.84-0.39,4.26-0.39
							c1.42,0,2.84,0.13,4.26,0.39C388.14,309.55,389.56,309.94,390.98,310.7z"/>
					</g>
				</g>
			</g>
			<g>
				<g>
					<g>
						<path class="st1" d="M341.8,200.43c0.44,0.83,0.66,1.66,0.83,2.48c0.16,0.83,0.23,1.66,0.23,2.48c0,0.83-0.07,1.66-0.23,2.48
							c-0.17,0.83-0.39,1.66-0.84,2.48c-0.45-0.83-0.67-1.66-0.84-2.48c-0.16-0.83-0.23-1.66-0.23-2.48c0-0.83,0.07-1.66,0.23-2.48
							C341.14,202.09,341.36,201.26,341.8,200.43z"/>
					</g>
					<g>
						<path class="st1" d="M346.76,205.4c-0.83,0.44-1.66,0.66-2.48,0.83c-0.83,0.16-1.66,0.23-2.48,0.23
							c-0.83,0-1.66-0.07-2.48-0.23c-0.83-0.17-1.66-0.39-2.48-0.84c0.83-0.45,1.66-0.67,2.48-0.84c0.83-0.16,1.66-0.23,2.48-0.23
							c0.83,0,1.66,0.07,2.48,0.23C345.11,204.74,345.94,204.96,346.76,205.4z"/>
					</g>
				</g>
			</g>
			<g>
				<g>
					<g>
						<path class="st1" d="M74.01,356.76c0.44,0.83,0.66,1.66,0.83,2.48c0.16,0.83,0.23,1.66,0.23,2.48c0,0.83-0.07,1.66-0.23,2.48
							c-0.17,0.83-0.39,1.66-0.84,2.48c-0.45-0.83-0.67-1.66-0.84-2.48c-0.16-0.83-0.23-1.66-0.23-2.48c0-0.83,0.07-1.66,0.23-2.48
							C73.35,358.42,73.57,357.59,74.01,356.76z"/>
					</g>
					<g>
						<path class="st1" d="M78.98,361.73c-0.83,0.44-1.66,0.66-2.48,0.83c-0.83,0.16-1.66,0.23-2.48,0.23
							c-0.83,0-1.66-0.07-2.48-0.23c-0.83-0.17-1.66-0.39-2.48-0.84c0.83-0.45,1.66-0.67,2.48-0.84c0.83-0.16,1.66-0.23,2.48-0.23
							c0.83,0,1.66,0.07,2.48,0.23C77.32,361.07,78.15,361.29,78.98,361.73z"/>
					</g>
				</g>
			</g>
			<g>
				<g>
					<g>
						<path class="st1" d="M185.44,150.98c0.51,0.96,0.78,1.92,0.97,2.88c0.18,0.96,0.27,1.92,0.27,2.88c0,0.96-0.08,1.92-0.26,2.88
							c-0.19,0.96-0.46,1.92-0.97,2.88c-0.51-0.96-0.78-1.92-0.97-2.88c-0.18-0.96-0.27-1.92-0.26-2.88c0-0.96,0.09-1.92,0.27-2.88
							C184.67,152.9,184.93,151.94,185.44,150.98z"/>
					</g>
					<g>
						<path class="st1" d="M191.21,156.74c-0.96,0.51-1.92,0.78-2.88,0.97c-0.96,0.18-1.92,0.27-2.88,0.27
							c-0.96,0-1.92-0.08-2.88-0.26c-0.96-0.19-1.92-0.46-2.88-0.97c0.96-0.51,1.92-0.78,2.88-0.97c0.96-0.18,1.92-0.27,2.88-0.26
							c0.96,0,1.92,0.09,2.88,0.27C189.29,155.97,190.25,156.23,191.21,156.74z"/>
					</g>
				</g>
			</g>
			<g>
				<g>
					<path class="st3" d="M361.89,265.3c2.05,0,2.06-3.19,0-3.19C359.84,262.11,359.83,265.3,361.89,265.3L361.89,265.3z"/>
				</g>
			</g>
			<g>
				<g>
					<path class="st3" d="M432.6,266.79c2.05,0,2.06-3.19,0-3.19C430.54,263.6,430.54,266.79,432.6,266.79L432.6,266.79z"/>
				</g>
			</g>
			<g>
				<g>
					<path class="st3" d="M397.27,158.79c2.05,0,2.06-3.19,0-3.19C395.21,155.6,395.21,158.79,397.27,158.79L397.27,158.79z"/>
				</g>
			</g>
			<g>
				<g>
					<path class="st1" d="M75.93,230.79c2.05,0,2.06-3.19,0-3.19C73.88,227.6,73.87,230.79,75.93,230.79L75.93,230.79z"/>
				</g>
			</g>
			<g>
				<g>
					<path class="st1" d="M154.75,135.48c2.05,0,2.06-3.19,0-3.19C152.7,132.29,152.7,135.48,154.75,135.48L154.75,135.48z"/>
				</g>
			</g>
			<g>
				<g>
					<path class="st3" d="M400.2,366.92c4.11,0,4.11-6.38,0-6.38C396.09,360.53,396.08,366.92,400.2,366.92L400.2,366.92z"/>
				</g>
			</g>
			<g>
				<g>
					<path class="st1" d="M392.93,238.38c4.11,0,4.11-6.38,0-6.38C388.82,232,388.81,238.38,392.93,238.38L392.93,238.38z"/>
				</g>
			</g>
			<g>
				<g>
					<path class="st3" d="M159.93,215.72c4.11,0,4.11-6.38,0-6.38C155.82,209.33,155.82,215.72,159.93,215.72L159.93,215.72z"/>
				</g>
			</g>
			<g>
				<g>
					<path class="st3" d="M413.27,196.38c4.11,0,4.11-6.38,0-6.38C409.16,190,409.15,196.38,413.27,196.38L413.27,196.38z"/>
				</g>
			</g>
			<g>
				<g>
					<path class="st3" d="M438.6,330.38c4.11,0,4.11-6.38,0-6.38C434.49,324,434.48,330.38,438.6,330.38L438.6,330.38z"/>
				</g>
			</g>
			<g>
				<g>
					<path class="st3" d="M210.09,107.99c4.11,0,4.11-6.38,0-6.38C205.98,101.61,205.97,107.99,210.09,107.99L210.09,107.99z"/>
				</g>
			</g>
			<g>
				<g>
					<path class="st3" d="M121.42,186.66c4.11,0,4.11-6.38,0-6.38C117.31,180.27,117.3,186.66,121.42,186.66L121.42,186.66z"/>
				</g>
			</g>
			<g>
				<g>
					<path class="st3" d="M91.6,315.38c4.11,0,4.11-6.38,0-6.38C87.49,309,87.48,315.38,91.6,315.38L91.6,315.38z"/>
				</g>
			</g>
			<g>
				<g>
					<path class="st3" d="M349.27,167.05c4.11,0,4.11-6.38,0-6.38C345.16,160.67,345.15,167.05,349.27,167.05L349.27,167.05z"/>
				</g>
			</g>
		</g>
		<g>
			<g>
				<polygon class="st4" points="235.3,417.91 207.07,417.91 203.72,453.93 235.3,453.93 				"/>
				<g>
					<g>
						<g>
							<g>
								<path class="st5" d="M229.5,405.66c0,0,2.13,9.41-8.52,9.41h5.15c0,0,8.43-0.09,8.43-7.9L229.5,405.66z"/>
								<path class="st6" d="M220.98,415.06c0,0-1.12-5.51,7.09-9.41c0.87-0.41,1.88-0.44,2.76-0.06l3.73,1.57
									c0,0-7.81,2.57-11.01,7.9H220.98z"/>
							</g>
							<g>
								<path class="st5" d="M212.47,405.66c0,0-2.13,9.41,8.52,9.41h-5.15c0,0-8.43-0.09-8.43-7.9L212.47,405.66z"/>
								<path class="st6" d="M220.99,415.06c-0.55,2.72,1.67-5.24-7.09-9.41c-0.87-0.41-1.88-0.44-2.76-0.06l-3.73,1.57
									c0,0,7.81,2.57,11.01,7.9H220.99z"/>
							</g>
							<path class="st5" d="M221.66,411.35c-0.4,0.84-0.95,1.61-1.03,2.22c-0.08-0.61-0.27-1.38-0.67-2.22
								c-0.91,0.45-0.99,1.76-0.99,3.33c0,0.13,0.02,0.26,0.03,0.39h1.98h0.01h1.96c0.01-0.13,0.03-0.26,0.03-0.39
								C222.97,413.11,222.56,411.8,221.66,411.35z"/>
						</g>
						<path class="st7" d="M222.71,414.67c0,1.5-0.78,2.71-1.73,2.71c-0.96,0-1.73-1.21-1.73-2.71c0-1.5,0.78-2.71,1.73-2.71
							C221.94,411.96,222.71,413.18,222.71,414.67z"/>
					</g>
				</g>
				<rect x="203.67" y="415.07" class="st4" width="34.63" height="6.16"/>
				<rect x="216.92" y="415.07" class="st6" width="8.12" height="38.86"/>
			</g>
			<polygon class="st8" points="251.31,415.07 213.56,415.07 221.54,453.93 251.31,453.93 			"/>
			<g>
				<g>
					<g>
						<g>
							<g>
								<path class="st9" d="M182.7,396.02c0,0,1.89,8.41-7.63,8.39l4.6,0.01c0,0,7.54-0.06,7.55-7.05L182.7,396.02z"/>
								<path class="st4" d="M175.07,404.41c0,0-0.99-4.92,6.35-8.39c0.78-0.37,1.68-0.39,2.47-0.05l3.33,1.41
									c0,0-6.99,2.29-9.85,7.04L175.07,404.41z"/>
							</g>
							<g>
								<path class="st9" d="M167.49,395.99c0,0-1.92,8.4,7.6,8.42l-4.6-0.01c0,0-7.54-0.09-7.52-7.07L167.49,395.99z"/>
								<path class="st4" d="M175.09,404.41c0,0,1.01-4.92-6.32-8.42c-0.77-0.37-1.68-0.39-2.47-0.06l-3.33,1.4
									c0,0,6.98,2.31,9.82,7.08L175.09,404.41z"/>
							</g>
							<path class="st10" d="M175.69,401.09c-0.36,0.75-0.53,1.44-0.61,1.98c-0.07-0.55-0.24-1.23-0.6-1.99
								c-0.81,0.4-1.2,1.57-1.2,2.97c0,0.12,0.01,0.23,0.02,0.35l1.77,0h0.01l1.75,0c0.01-0.12,0.02-0.23,0.02-0.35
								C176.86,402.67,176.5,401.5,175.69,401.09z"/>
						</g>
						<path class="st11" d="M176.63,404.07c0,1.34-0.7,2.42-1.55,2.42c-0.86,0-1.55-1.09-1.54-2.43c0-1.34,0.7-2.42,1.55-2.42
							C175.94,401.64,176.63,402.73,176.63,404.07z"/>
					</g>
				</g>
				<polygon class="st12" points="192.14,404.4 158.47,404.4 156.34,453.93 188.56,453.93 				"/>
				<g>
					<defs>
						<polygon id="SVGID_1_" points="192.14,404.4 158.47,404.4 156.34,453.93 188.56,453.93 						"/>
					</defs>
					<clipPath id="SVGID_00000032623415846959269090000002768115512901813408_">
						<use xlink:href="#SVGID_1_"  style="overflow:visible;"/>
					</clipPath>
					
						<line style="clip-path:url(#SVGID_00000032623415846959269090000002768115512901813408_);fill:none;stroke:#8A232F;stroke-width:4.7744;stroke-miterlimit:10;" x1="148.52" y1="410.66" x2="196.27" y2="410.66"/>
					
						<line style="clip-path:url(#SVGID_00000032623415846959269090000002768115512901813408_);fill:none;stroke:#8A232F;stroke-width:4.7744;stroke-miterlimit:10;" x1="152.36" y1="419.91" x2="200.1" y2="419.91"/>
					
						<line style="clip-path:url(#SVGID_00000032623415846959269090000002768115512901813408_);fill:none;stroke:#8A232F;stroke-width:4.7744;stroke-miterlimit:10;" x1="152.36" y1="429.16" x2="200.1" y2="429.16"/>
					
						<line style="clip-path:url(#SVGID_00000032623415846959269090000002768115512901813408_);fill:none;stroke:#8A232F;stroke-width:4.7744;stroke-miterlimit:10;" x1="152.36" y1="438.41" x2="200.1" y2="438.41"/>
					
						<line style="clip-path:url(#SVGID_00000032623415846959269090000002768115512901813408_);fill:none;stroke:#8A232F;stroke-width:4.7744;stroke-miterlimit:10;" x1="152.36" y1="447.66" x2="200.1" y2="447.66"/>
				</g>
				<polygon class="st8" points="158.33,405.55 158.13,411.93 191.6,411.93 192.06,405.55 				"/>
				<polygon class="st12" points="193.93,404.4 156.63,404.4 155.93,410.04 193.62,410.04 				"/>
			</g>
			<g>
				<g>
					<rect x="75.03" y="430.79" class="st12" width="76.15" height="23.14"/>
					<g>
						<g>
							<circle class="st3" cx="82.17" cy="439.26" r="1.12"/>
							<path class="st3" d="M103.91,439.26c0,0.62-0.5,1.12-1.12,1.12c-0.62,0-1.12-0.5-1.12-1.12c0-0.62,0.5-1.12,1.12-1.12
								C103.41,438.14,103.91,438.64,103.91,439.26z"/>
							<circle class="st3" cx="123.42" cy="439.26" r="1.12"/>
							<path class="st3" d="M145.16,439.26c0,0.62-0.5,1.12-1.12,1.12c-0.62,0-1.12-0.5-1.12-1.12c0-0.62,0.5-1.12,1.12-1.12
								C144.66,438.14,145.16,438.64,145.16,439.26z"/>
						</g>
						<g>
							<path class="st3" d="M93.6,444.64c0,0.62-0.5,1.12-1.12,1.12c-0.62,0-1.12-0.5-1.12-1.12c0-0.62,0.5-1.12,1.12-1.12
								C93.1,443.52,93.6,444.02,93.6,444.64z"/>
							<path class="st3" d="M114.22,444.64c0,0.62-0.5,1.12-1.12,1.12c-0.62,0-1.12-0.5-1.12-1.12c0-0.62,0.5-1.12,1.12-1.12
								C113.72,443.52,114.22,444.02,114.22,444.64z"/>
							<circle class="st3" cx="133.73" cy="444.64" r="1.12"/>
						</g>
						<g>
							<circle class="st3" cx="82.17" cy="450.01" r="1.12"/>
							<path class="st3" d="M103.91,450.01c0,0.62-0.5,1.12-1.12,1.12c-0.62,0-1.12-0.5-1.12-1.12s0.5-1.12,1.12-1.12
								C103.41,448.89,103.91,449.4,103.91,450.01z"/>
							<circle class="st3" cx="123.42" cy="450.01" r="1.12"/>
							<path class="st3" d="M145.16,450.01c0,0.62-0.5,1.12-1.12,1.12c-0.62,0-1.12-0.5-1.12-1.12s0.5-1.12,1.12-1.12
								C144.66,448.89,145.16,449.4,145.16,450.01z"/>
						</g>
					</g>
					<polygon class="st14" points="75.03,430.79 75.03,436.74 151,438.41 151.18,430.79 					"/>
					<rect x="73.14" y="427.22" class="st12" width="80.2" height="7.28"/>
				</g>
				<g>
					<g>
						<g>
							<g>
								<g>
									<path class="st5" d="M110.64,374.9c0,0,2.18,9.61-8.7,9.61h5.26c0,0,8.61-0.09,8.61-8.07L110.64,374.9z"/>
									<path class="st6" d="M101.94,384.51c0,0-1.14-5.63,7.24-9.61c0.89-0.42,1.92-0.44,2.82-0.06l3.81,1.6
										c0,0-7.98,2.63-11.24,8.07H101.94z"/>
								</g>
								<g>
									<path class="st5" d="M93.25,374.9c0,0-2.18,9.61,8.7,9.61h-5.26c0,0-8.61-0.09-8.61-8.07L93.25,374.9z"/>
									<path class="st6" d="M101.95,384.51c0,0,1.14-5.63-7.24-9.61c-0.89-0.42-1.92-0.44-2.82-0.06l-3.81,1.6
										c0,0,7.98,2.63,11.24,8.07H101.95z"/>
								</g>
								<path class="st5" d="M102.63,380.71c-0.41,0.86-0.61,1.64-0.69,2.27c-0.08-0.63-0.28-1.41-0.69-2.27
									c-0.92,0.46-1.37,1.8-1.37,3.4c0,0.14,0.02,0.27,0.03,0.4h2.02h0.01h2c0.01-0.13,0.03-0.26,0.03-0.4
									C103.98,382.51,103.56,381.17,102.63,380.71z"/>
							</g>
							<path class="st7" d="M103.71,384.11c0,1.53-0.79,2.77-1.77,2.77s-1.77-1.24-1.77-2.77c0-1.53,0.79-2.77,1.77-2.77
								S103.71,382.58,103.71,384.11z"/>
						</g>
					</g>
					<polygon class="st4" points="120.01,427.03 85.12,427.03 87.4,384.51 117.72,384.51 					"/>
					<g>
						<defs>
							<polygon id="SVGID_00000174588638869047725760000012785876682482240134_" points="120.01,427.03 85.12,427.03 87.4,384.51 
								117.72,384.51 							"/>
						</defs>
						<clipPath id="SVGID_00000072981855596516438920000000739379319834777236_">
							<use xlink:href="#SVGID_00000174588638869047725760000012785876682482240134_"  style="overflow:visible;"/>
						</clipPath>
						<g style="clip-path:url(#SVGID_00000072981855596516438920000000739379319834777236_);">
							<g>
								<path class="st3" d="M103.36,399.39c-0.43,0-0.78-0.35-0.78-0.78s0.35-0.78,0.78-0.78c0.43,0,0.78,0.35,0.78,0.78
									S103.8,399.39,103.36,399.39z"/>
								<path class="st3" d="M102.81,409.14c-0.31-0.31-0.31-0.8,0-1.1c0.31-0.3,0.8-0.3,1.1,0c0.31,0.31,0.31,0.8,0,1.1
									C103.61,409.45,103.12,409.45,102.81,409.14z"/>
								<path class="st3" d="M107.98,394.4c-0.43,0-0.78-0.35-0.78-0.78s0.35-0.78,0.78-0.78c0.43,0,0.78,0.35,0.78,0.78
									S108.41,394.4,107.98,394.4z"/>
								<path class="st3" d="M107.98,404.38c-0.43,0-0.78-0.35-0.78-0.78c0-0.43,0.35-0.78,0.78-0.78c0.43,0,0.78,0.35,0.78,0.78
									C108.76,404.03,108.41,404.38,107.98,404.38z"/>
								<path class="st3" d="M107.98,414.36c-0.43,0-0.78-0.35-0.78-0.78c0-0.43,0.35-0.78,0.78-0.78c0.43,0,0.78,0.35,0.78,0.78
									C108.76,414.01,108.41,414.36,107.98,414.36z"/>
								<path class="st3" d="M103.36,419.35c-0.43,0-0.78-0.35-0.78-0.78c0-0.43,0.35-0.78,0.78-0.78c0.43,0,0.78,0.35,0.78,0.78
									C104.15,419,103.8,419.35,103.36,419.35z"/>
								<path class="st3" d="M107.98,424.34c-0.43,0-0.78-0.35-0.78-0.78c0-0.43,0.35-0.78,0.78-0.78c0.43,0,0.78,0.35,0.78,0.78
									C108.76,423.99,108.41,424.34,107.98,424.34z"/>
							</g>
							<g>
								<path class="st3" d="M113.45,399.39c-0.43,0-0.78-0.35-0.78-0.78s0.35-0.78,0.78-0.78c0.43,0,0.78,0.35,0.78,0.78
									S113.88,399.39,113.45,399.39z"/>
								<path class="st3" d="M112.9,409.14c-0.31-0.31-0.31-0.8,0-1.1c0.31-0.3,0.8-0.3,1.1,0c0.31,0.31,0.31,0.8,0,1.1
									C113.7,409.45,113.2,409.45,112.9,409.14z"/>
								<path class="st3" d="M118.07,394.4c-0.43,0-0.78-0.35-0.78-0.78s0.35-0.78,0.78-0.78c0.43,0,0.78,0.35,0.78,0.78
									S118.5,394.4,118.07,394.4z"/>
								<path class="st3" d="M118.07,404.38c-0.43,0-0.78-0.35-0.78-0.78c0-0.43,0.35-0.78,0.78-0.78c0.43,0,0.78,0.35,0.78,0.78
									C118.85,404.03,118.5,404.38,118.07,404.38z"/>
								<path class="st3" d="M118.07,414.36c-0.43,0-0.78-0.35-0.78-0.78c0-0.43,0.35-0.78,0.78-0.78c0.43,0,0.78,0.35,0.78,0.78
									C118.85,414.01,118.5,414.36,118.07,414.36z"/>
								<path class="st3" d="M113.45,419.35c-0.43,0-0.78-0.35-0.78-0.78c0-0.43,0.35-0.78,0.78-0.78c0.43,0,0.78,0.35,0.78,0.78
									C114.23,419,113.88,419.35,113.45,419.35z"/>
								<path class="st3" d="M118.07,424.34c-0.43,0-0.78-0.35-0.78-0.78c0-0.43,0.35-0.78,0.78-0.78c0.43,0,0.78,0.35,0.78,0.78
									C118.85,423.99,118.5,424.34,118.07,424.34z"/>
							</g>
							<path class="st3" d="M87.09,394.4c-0.43,0-0.78-0.35-0.78-0.78s0.35-0.78,0.78-0.78c0.43,0,0.78,0.35,0.78,0.78
								S87.52,394.4,87.09,394.4z"/>
							<path class="st3" d="M87.09,404.38c-0.43,0-0.78-0.35-0.78-0.78c0-0.43,0.35-0.78,0.78-0.78c0.43,0,0.78,0.35,0.78,0.78
								C87.87,404.03,87.52,404.38,87.09,404.38z"/>
							<path class="st3" d="M87.09,414.36c-0.43,0-0.78-0.35-0.78-0.78c0-0.43,0.35-0.78,0.78-0.78c0.43,0,0.78,0.35,0.78,0.78
								C87.87,414.01,87.52,414.36,87.09,414.36z"/>
							<path class="st3" d="M87.09,424.34c-0.43,0-0.78-0.35-0.78-0.78c0-0.43,0.35-0.78,0.78-0.78c0.43,0,0.78,0.35,0.78,0.78
								C87.87,423.99,87.52,424.34,87.09,424.34z"/>
							<g>
								<path class="st3" d="M92.56,399.39c-0.43,0-0.78-0.35-0.78-0.78s0.35-0.78,0.78-0.78c0.43,0,0.78,0.35,0.78,0.78
									S92.99,399.39,92.56,399.39z"/>
								<path class="st3" d="M92.01,409.14c-0.31-0.31-0.31-0.8,0-1.1c0.31-0.3,0.8-0.3,1.1,0c0.31,0.31,0.31,0.8,0,1.1
									C92.81,409.45,92.31,409.45,92.01,409.14z"/>
								<path class="st3" d="M97.18,394.4c-0.43,0-0.78-0.35-0.78-0.78s0.35-0.78,0.78-0.78c0.43,0,0.78,0.35,0.78,0.78
									S97.61,394.4,97.18,394.4z"/>
								<path class="st3" d="M97.18,404.38c-0.43,0-0.78-0.35-0.78-0.78c0-0.43,0.35-0.78,0.78-0.78c0.43,0,0.78,0.35,0.78,0.78
									C97.96,404.03,97.61,404.38,97.18,404.38z"/>
								<path class="st3" d="M97.18,414.36c-0.43,0-0.78-0.35-0.78-0.78c0-0.43,0.35-0.78,0.78-0.78c0.43,0,0.78,0.35,0.78,0.78
									C97.96,414.01,97.61,414.36,97.18,414.36z"/>
								<path class="st3" d="M92.56,419.35c-0.43,0-0.78-0.35-0.78-0.78c0-0.43,0.35-0.78,0.78-0.78c0.43,0,0.78,0.35,0.78,0.78
									C93.34,419,92.99,419.35,92.56,419.35z"/>
								<path class="st3" d="M97.18,424.34c-0.43,0-0.78-0.35-0.78-0.78c0-0.43,0.35-0.78,0.78-0.78c0.43,0,0.78,0.35,0.78,0.78
									C97.96,423.99,97.61,424.34,97.18,424.34z"/>
							</g>
						</g>
					</g>
					<polygon class="st16" points="117.79,385.78 87.34,385.78 87.06,391.54 118.07,391.54 					"/>
					<rect x="85.54" y="384.51" class="st4" width="33.59" height="5.17"/>
					<rect x="98.75" y="384.51" class="st6" width="6.39" height="42.52"/>
				</g>
			</g>
			<g>
				<g>
					<g>
						<g>
							<g>
								<path class="st9" d="M398.2,379.2c0,0,3.12,13.78-12.48,13.78h7.54c0,0,12.35-0.13,12.35-11.57L398.2,379.2z"/>
								<path class="st4" d="M385.72,392.97c0,0-1.64-8.06,10.38-13.78c1.27-0.6,2.75-0.64,4.04-0.09l5.46,2.3
									c0,0-11.44,3.77-16.12,11.57H385.72z"/>
							</g>
							<g>
								<path class="st9" d="M373.26,379.2c0,0-3.12,13.78,12.48,13.78h-7.54c0,0-12.35-0.13-12.35-11.57L373.26,379.2z"/>
								<path class="st4" d="M385.74,392.97c0,0,1.64-8.06-10.38-13.78c-1.27-0.6-2.75-0.64-4.04-0.09l-5.46,2.3
									c0,0,11.44,3.77,16.12,11.57H385.74z"/>
							</g>
							<path class="st9" d="M386.72,387.53c-0.59,1.23-0.87,2.35-0.99,3.25c-0.12-0.9-0.4-2.02-0.99-3.25
								c-1.33,0.66-1.96,2.58-1.96,4.87c0,0.2,0.02,0.38,0.04,0.57h2.9h0.02h2.87c0.01-0.19,0.04-0.38,0.04-0.57
								C388.65,390.11,388.04,388.19,386.72,387.53z"/>
						</g>
						<path class="st11" d="M388.27,392.4c0,2.19-1.14,3.97-2.54,3.97c-1.4,0-2.54-1.78-2.54-3.97c0-2.19,1.14-3.97,2.54-3.97
							C387.13,388.43,388.27,390.21,388.27,392.4z"/>
					</g>
				</g>
				<polygon class="st6" points="411.63,453.93 361.61,453.93 364.89,392.97 408.35,392.97 				"/>
				<g>
					<defs>
						<polygon id="SVGID_00000088823111350513401990000014441261824813109403_" points="411.63,453.93 361.61,453.93 364.89,392.97 
							408.35,392.97 						"/>
					</defs>
					<clipPath id="SVGID_00000111912669559068688860000010789993496424313235_">
						<use xlink:href="#SVGID_00000088823111350513401990000014441261824813109403_"  style="overflow:visible;"/>
					</clipPath>
					<g style="clip-path:url(#SVGID_00000111912669559068688860000010789993496424313235_);">
						<g>
							<path class="st3" d="M387.77,414.31c-0.62,0-1.12-0.5-1.12-1.12c0-0.62,0.5-1.12,1.12-1.12c0.62,0,1.12,0.5,1.12,1.12
								C388.89,413.8,388.39,414.31,387.77,414.31z"/>
							<path class="st3" d="M386.98,428.29c-0.44-0.44-0.44-1.15,0-1.58c0.44-0.44,1.15-0.44,1.58,0c0.44,0.44,0.44,1.15,0,1.58
								C388.12,428.72,387.41,428.72,386.98,428.29z"/>
							<circle class="st3" cx="394.39" cy="406.03" r="1.12"/>
							<path class="st3" d="M394.39,421.46c-0.62,0-1.12-0.5-1.12-1.12c0-0.62,0.5-1.12,1.12-1.12c0.62,0,1.12,0.5,1.12,1.12
								C395.51,420.96,395.01,421.46,394.39,421.46z"/>
							<circle class="st3" cx="394.39" cy="434.65" r="1.12"/>
							<path class="st3" d="M387.77,442.92c-0.62,0-1.12-0.5-1.12-1.12c0-0.62,0.5-1.12,1.12-1.12c0.62,0,1.12,0.5,1.12,1.12
								C388.89,442.42,388.39,442.92,387.77,442.92z"/>
							<circle class="st3" cx="394.39" cy="448.96" r="1.12"/>
						</g>
						<g>
							<circle class="st3" cx="402.23" cy="413.19" r="1.12"/>
							<path class="st3" d="M401.43,428.29c-0.44-0.44-0.44-1.15,0-1.58c0.44-0.44,1.15-0.44,1.58,0c0.44,0.44,0.44,1.15,0,1.58
								C402.58,428.72,401.87,428.72,401.43,428.29z"/>
							<circle class="st3" cx="408.85" cy="406.03" r="1.12"/>
							<path class="st3" d="M408.85,421.46c-0.62,0-1.12-0.5-1.12-1.12c0-0.62,0.5-1.12,1.12-1.12c0.62,0,1.12,0.5,1.12,1.12
								C409.97,420.96,409.46,421.46,408.85,421.46z"/>
							<circle class="st3" cx="408.85" cy="434.65" r="1.12"/>
							<path class="st3" d="M402.23,442.92c-0.62,0-1.12-0.5-1.12-1.12c0-0.62,0.5-1.12,1.12-1.12c0.62,0,1.12,0.5,1.12,1.12
								C403.35,442.42,402.84,442.92,402.23,442.92z"/>
							<circle class="st3" cx="408.85" cy="448.96" r="1.12"/>
						</g>
						<path class="st3" d="M364.44,407.15c-0.62,0-1.12-0.5-1.12-1.12s0.5-1.12,1.12-1.12c0.62,0,1.12,0.5,1.12,1.12
							S365.06,407.15,364.44,407.15z"/>
						<path class="st3" d="M364.44,421.46c-0.62,0-1.12-0.5-1.12-1.12c0-0.62,0.5-1.12,1.12-1.12c0.62,0,1.12,0.5,1.12,1.12
							C365.56,420.96,365.06,421.46,364.44,421.46z"/>
						<path class="st3" d="M364.44,435.77c-0.62,0-1.12-0.5-1.12-1.12s0.5-1.12,1.12-1.12c0.62,0,1.12,0.5,1.12,1.12
							S365.06,435.77,364.44,435.77z"/>
						<path class="st3" d="M364.44,450.08c-0.62,0-1.12-0.5-1.12-1.12c0-0.62,0.5-1.12,1.12-1.12c0.62,0,1.12,0.5,1.12,1.12
							C365.56,449.58,365.06,450.08,364.44,450.08z"/>
						<g>
							<path class="st3" d="M372.28,414.31c-0.62,0-1.12-0.5-1.12-1.12c0-0.62,0.5-1.12,1.12-1.12c0.62,0,1.12,0.5,1.12,1.12
								C373.4,413.8,372.89,414.31,372.28,414.31z"/>
							<path class="st3" d="M371.48,428.29c-0.44-0.44-0.44-1.15,0-1.58c0.44-0.44,1.15-0.44,1.58,0c0.44,0.44,0.44,1.15,0,1.58
								C372.63,428.72,371.92,428.72,371.48,428.29z"/>
							<path class="st3" d="M378.9,407.15c-0.62,0-1.12-0.5-1.12-1.12s0.5-1.12,1.12-1.12c0.62,0,1.12,0.5,1.12,1.12
								S379.51,407.15,378.9,407.15z"/>
							<path class="st3" d="M378.9,421.46c-0.62,0-1.12-0.5-1.12-1.12c0-0.62,0.5-1.12,1.12-1.12c0.62,0,1.12,0.5,1.12,1.12
								C380.02,420.96,379.51,421.46,378.9,421.46z"/>
							<path class="st3" d="M378.9,435.77c-0.62,0-1.12-0.5-1.12-1.12s0.5-1.12,1.12-1.12c0.62,0,1.12,0.5,1.12,1.12
								S379.51,435.77,378.9,435.77z"/>
							<path class="st3" d="M372.28,442.92c-0.62,0-1.12-0.5-1.12-1.12c0-0.62,0.5-1.12,1.12-1.12c0.62,0,1.12,0.5,1.12,1.12
								C373.4,442.42,372.89,442.92,372.28,442.92z"/>
							<path class="st3" d="M378.9,450.08c-0.62,0-1.12-0.5-1.12-1.12c0-0.62,0.5-1.12,1.12-1.12c0.62,0,1.12,0.5,1.12,1.12
								C380.02,449.58,379.51,450.08,378.9,450.08z"/>
						</g>
					</g>
				</g>
				<polygon class="st18" points="408.45,394.79 364.79,394.79 364.39,402.21 408.85,402.21 				"/>
				<rect x="362.22" y="392.97" class="st6" width="48.15" height="7.42"/>
				<rect x="381.15" y="392.97" class="st4" width="9.16" height="60.96"/>
			</g>
			<g>
				<path class="st19" d="M267.57,358.83h-28.42v65.92c9.81,3.5,19.28,3.57,28.42,0V358.83z"/>
				<path class="st20" d="M267.57,396.82v-30.69h-28.42v25.36c3.78-2.08,8.1-4.41,12.49-8.79
					C257.42,388.48,263.11,394.82,267.57,396.82z"/>
				<g>
					<path class="st21" d="M401.79,339.02c-18.34,0-33.03-6.91-44.14-15.32c3.79-1.63,6.42-4.23,6.42-4.23
						c-13.36-1.91-20.92-9.5-23.39-12.43c-0.29-0.37-0.58-0.73-0.86-1.08c-0.03-0.05-0.06-0.08-0.06-0.08l0,0.01
						c-5.34-6.87-11.39-17.33-11.39-17.33H178.15c0,0-8.07,14.76-17.85,25.06c-3.34,2.5-12.14,7.89-25.1,7.01
						c0,0,3.17,4.79,8.13,7.06c-10.27,6.51-23.07,11.34-38.41,11.34c0,0,1.36,11.22,32.97,11.22l-11.9,18.69
						c0,0,15.63,1.7,26.51-9.18l-12.92,16.31c0,0,22.09,0,40.44-9.18l-10.54,13.59c0,0,17.84,2.89,27.87-7.14l-8.43,13.34
						c0,0,22.53,5.87,43.78-15.38l-4.08,11.22c0,0,12.12-1.36,24.7-13.93c12.58,12.58,24.73,13.93,24.73,13.93l-4.08-11.22
						c21.24,21.24,43.59,15,43.59,15l-8.24-12.96c10.03,10.03,27.87,7.14,27.87,7.14l-10.54-13.59c18.35,9.18,40.44,9.18,40.44,9.18
						l-12.92-16.31c10.88,10.88,26.51,9.18,26.51,9.18l-11.9-18.69C400.43,350.23,401.79,339.02,401.79,339.02z"/>
					<path class="st22" d="M174.37,313.94c0,0-10.23,8.9-21.79,8.9c0,0,2.46,4.55,8.34,3.79c0,0-13.66,13.33-28.82,14.09
						c0,0,9.57,3.67,19.61,1.21l-10.68,15.77c0,0,13.54-2.91,22.83-10.87c0,0,2.94,6.7,12.79,8.6c0,0-6.06-15.16-5.3-21.6
						c0,0,3.03,3.6,8.81,1.33C173.23,325.78,174.37,313.94,174.37,313.94z"/>
					<path class="st22" d="M331.22,313.18c0,0,11.75,6.82,18.94,6.82c0,0-1.7,3.41-3.79,3.41c0,0,5.68,11.56,18.75,14.21
						c0,0-1.33,4.74-9.66,2.65c0,0,0.62,9.05,11.93,16.67c0,0-10.47,0.19-20.84-10.42c0,0-1.7,4.74-10.23,3.41
						c0,0,4.55-4.88,3.55-14.4c0,0-2.13,6.39-11.08,5.26c0.28-0.43,7.67-9.09,5.97-16.48c0,0-1.85,4.4-5.4,3.84
						C329.37,328.14,333.92,321.37,331.22,313.18z"/>
					<path class="st22" d="M232.05,340.55c-6.54,0.99-10.94-1.28-10.94-1.28c-0.71,11.93,9.38,14.92,9.38,14.92
						s-9.52,4.78-15.91,0.99c-6.2,11.89-27.71,14.44-27.71,14.44c7.67-5.21,16.48-18,16.48-18s-7.53-0.14-13.07-3.98
						c0,0,11.79-1.28,16.34-12.36c0,0-4.83,0.14-11.51-3.55c0,0,18.33-2.7,25.57-14.35C220.68,317.39,223.1,334.3,232.05,340.55z"/>
					<path class="st22" d="M275.97,345.65c1.72,6.86-8.06,16.07-8.06,16.07c5.5,0.23,10.75-4.15,10.75-4.15
						c3.48,13.34,25.45,18.05,25.45,18.05c-8-5.26-9.22-16.64-9.22-16.64c4.46,4.49,14.27,0.24,14.27,0.24s-12.22-4.97-14.28-10.53
						c0,0,4.16,0.27,8.14-2.92c0,0-12.41,0.16-14.86-8.69c0,0,5.13,1.9,10.04-1.18c0,0-15.67-4.78-18.93-20.19
						c0,0-5.78,16.13-13.06,21.62c0,0,6.68,1.69,9.47-2.96c0,0-5.64,11.39-12.29,16.37C263.41,350.75,273.2,350.11,275.97,345.65z"
						/>
					<path class="st22" d="M248.96,350.82c0,0,5.85,9.54-7.64,17.03C241.32,367.84,238.92,355.04,248.96,350.82z"/>
					<path class="st22" d="M200.07,311.71c0,0,2.22,12.32-10.21,14.54C189.86,326.25,187.53,318.37,200.07,311.71z"/>
					<path class="st22" d="M319,342.54c0,0-7.96,2.18-8.15-8.9C310.85,333.64,317.49,336.1,319,342.54z"/>
				</g>
				<g>
					<path class="st23" d="M359.3,278.86c-12.36,0-22.5-6.95-30.58-16.41c6.33-0.36,11.56-5.51,11.56-5.51
						c-13.86-1.98-21.47-10.07-23.64-12.74c-8.91-16.91-13.08-33.66-13.08-33.66h-50.22h-50.19c0,0-3.98,16.02-12.49,32.54
						c-3.78,3.47-10.56,8.16-20.66,9.6c0,0,5.13,5.05,11.38,5.5c-8.58,11.56-19.82,20.67-33.97,20.67c0,0,19.45,14.12,29.44,5.35
						l-14.24,13.25c0,0,18.1,2.29,24.22-3.82l-13,13.51c0,0,22.81,5.48,42.82-14.53l-8.41,13.76c0,0,19.25-1.4,29.06-11.22
						l-8.41,10.45c0,0,12.33,1.91,24.44-10.2c9.11,14.02,27.12,15.38,27.12,15.38l-11.06-15.63c9.81,9.81,25.16,8.33,25.16,8.33
						l-4.52-10.88c20.01,20.01,42.82,14.53,42.82,14.53l-13-13.51c6.12,6.12,24.22,3.82,24.22,3.82l-14.24-13.25
						C339.85,292.98,359.3,278.86,359.3,278.86z"/>
					<path class="st24" d="M283.29,235.51c0,0,10.28,8.95,21.36,8.1c0,0-4.97,5.97-8.81,5.4c0,0,13.92,8.52,27.56,6.68
						c0,0-3.84,7.67-15.06,5.4c0,0,14.07,12.93,24.3,14.21c0,0-6.82,6.54-14.07,3.55l10.94,12.36l-19.32-7.96
						c0,0,1.89,11.75,6.25,14.59c0,0-20.27-5.11-23.49-19.13c0,0-1.7,6.63-12.31,7.2c0,0,8.52-11.93,8.15-21.6
						c0,0-4.74,6.06-9.47,7.01c0,0,8.15-10.23,6.63-18.94c0,0-2.08,3.79-6.63,4.55C279.31,256.92,285.38,244.03,283.29,235.51z"/>
					<path class="st24" d="M228.35,251.42c-5.3,3.22-10.99,0-10.99,0c0.19,6.06,14.21,14.02,14.21,14.02
						c-9.09,3.03-13.26-2.46-13.26-2.46c1.14,8.15,13.45,15.53,13.45,15.53c-7.58,0.38-15.34-5.3-15.34-5.3
						c-5.68,14.4-20.65,17.05-20.65,17.05c4.36-5.11,3.98-18.19,3.98-18.19c-9.28,7.01-21.41,1.89-21.41,1.89
						c14.78-5.49,25.95-18,25.95-18c-6.44,1.89-16.29-2.84-16.29-2.84c11.37,0,18.38-6.82,18.38-6.82
						c-2.46,2.27-10.99-0.76-10.99-0.76c7.39-1.14,21.03-11.56,21.03-11.56S218.31,245.17,228.35,251.42z"/>
					<path class="st24" d="M254.54,282.44c0,0,2.56,9.66,9.24,11.51c0,0-3.55-10.37-2.7-16.34c0,0,3.84,2.7,10.23,0
						c0,0-7.1-2.84-11.08-11.93c0,0,3.84,2.98,10.94,0.99c-12.5-7.53-14.63-23.44-14.63-23.44s-5.4,12.22-16.34,15.49
						c2.84,2.7,4.69,3.27,4.69,3.27s-1.14,4.69-10.37,8.81c5.11,2.56,11.51,0.43,11.51,0.43s-7.39,11.65-15.34,16.05
						c9.66,1.85,13.5-3.84,13.5-3.84s3.69,4.83-0.85,11.37C250.99,292.53,254.54,282.44,254.54,282.44z"/>
					<path class="st24" d="M216.28,301.5c0,0,9.09,0.85,12.86-9.38C229.14,292.13,220.61,291.2,216.28,301.5z"/>
					<path class="st24" d="M265.72,245.03c0,0-2.98,9.95,5.97,14.21C271.69,259.24,273.96,251.28,265.72,245.03z"/>
					<g>
						<path class="st6" d="M190.65,241.91c10.07-0.85,19.99-2.13,29.75-4.24c9.77-2.08,19.35-4.92,29.11-7.62
							c2.44-0.66,4.93-1.25,7.39-1.87c2.49-0.54,4.98-1.13,7.5-1.6c5.05-0.84,10.16-1.57,15.3-1.68
							c10.28-0.39,20.53,0.97,30.31,3.63c0.27,0.07,0.43,0.36,0.36,0.63c-0.07,0.25-0.3,0.4-0.55,0.37l-0.01,0
							c-10.02-1.15-20-1.66-29.87-0.78c-9.87,0.85-19.55,3.07-29.23,5.75l-7.31,1.93c-2.45,0.64-4.88,1.32-7.36,1.88l-3.71,0.87
							l-3.74,0.78l-3.74,0.76l-3.78,0.58c-10.07,1.58-20.32,2.04-30.42,1.33c-0.21-0.01-0.36-0.19-0.35-0.4
							C190.32,242.07,190.47,241.93,190.65,241.91L190.65,241.91z"/>
					</g>
				</g>
				<g>
					<g>
						<defs>
							<path id="SVGID_00000063600943544678942390000009211707348650789528_" d="M359.3,278.86c-12.36,0-22.5-6.95-30.58-16.41
								c6.33-0.36,11.56-5.51,11.56-5.51c-13.86-1.98-21.47-10.07-23.64-12.74c-8.91-16.91-13.08-33.66-13.08-33.66h-50.22h-50.19
								c0,0-3.98,16.02-12.49,32.54c-3.78,3.47-10.56,8.16-20.66,9.6c0,0,5.13,5.05,11.38,5.5c-8.58,11.56-19.82,20.67-33.97,20.67
								c0,0,19.45,14.12,29.44,5.35l-14.24,13.25c0,0,18.1,2.29,24.22-3.82l-13,13.51c0,0,22.81,5.48,42.82-14.53l-8.41,13.76
								c0,0,19.25-1.4,29.06-11.22l-8.41,10.45c0,0,12.33,1.91,24.44-10.2c9.11,14.02,27.12,15.38,27.12,15.38l-11.06-15.63
								c9.81,9.81,25.16,8.33,25.16,8.33l-4.52-10.88c20.01,20.01,42.82,14.53,42.82,14.53l-13-13.51
								c6.12,6.12,24.22,3.82,24.22,3.82l-14.24-13.25C339.85,292.98,359.3,278.86,359.3,278.86z"/>
						</defs>
						<clipPath id="SVGID_00000165914457176873356250000013537071305554836371_">
							<use xlink:href="#SVGID_00000063600943544678942390000009211707348650789528_"  style="overflow:visible;"/>
						</clipPath>
						<path style="opacity:0.4;clip-path:url(#SVGID_00000165914457176873356250000013537071305554836371_);fill:#274540;" d="
							M196.53,230.25c0,0,5.27,0.28,8.82-2.42l-5.04,11.37c0,0,18.49-1.14,26.94-7.32l-1.18,3.08c0,0,12.16,2.11,18.13-2.79
							c0,0,0.99,9.09-3.13,10.87c0,0,16.27-1.63,22.24-10.44c0,0,11.2,5.19,20.01,5.11l-1.49-5.61c0,0,8.17,7.39,23.23,4.62
							l-2.27-6.04c0,0,3.36,1.42,8.19,0.21v-32.96H196.53V230.25z"/>
					</g>
					<path class="st26" d="M325.99,191.94c-10.89,0-19.57-6.69-26.22-15.23c5.89-0.78,10.6-5.42,10.6-5.42
						c-0.09-0.01-0.18-0.03-0.26-0.04c-10.83-1.62-19.84-9.16-23.78-19.38c-2.47-6.42-3.66-11-3.66-11h-29.31h-29.28
						c0,0-2.19,8.45-6.82,18.47c-4.56,9.87-13.77,16.92-24.53,18.53c-0.09,0.01-0.18,0.03-0.28,0.04c0,0,3.79,3.73,8.83,5.07
						c-5.7,5.32-12.52,8.95-20.54,8.95c0,0,1.27,14.78,16.57,14.78l-16.57,12.49c0,0,22.03,8.37,35.16-4.76l-7.38,15.21
						c0,0,13.26,0.51,25.75-11.98l-1.93,7.14c0,0,6.88,0.54,16.14-5.36c0.72,4.93,0.93,11.2-1.93,13.68c0,0,9.37-2.52,14.77-11.14
						c8.47,5.05,17.02,6.64,17.02,6.64l-5.86-10.96c12.49,12.49,25.75,11.98,25.75,11.98l-8.92-13
						c13.13,13.13,36.71,2.55,36.71,2.55l-16.57-12.49C324.72,206.72,325.99,191.94,325.99,191.94z"/>
					<path class="st27" d="M282.34,205.82c9.24,9.24,23.87,8.67,23.87,8.67l-13.37-14.11c10.77,0,15.17-4.84,15.17-4.84
						c-9.85-3.13-17.65-13.66-22.33-19.68c4.15-0.55,7.94-4.29,7.94-4.29c-8.57-0.99-18.99-6.24-21.79-8.52
						c0,0-3.46,14.97-8.38,19.32c0,0,7.29,1.23,9.38-0.85c0,0,0.38,16.62-9.09,17.76c0,0,7.15,3.98,12.64-1.14c0,0-2.27,9-8.24,9.9
						C268.14,208.04,279.03,211.5,282.34,205.82z"/>
					<path class="st27" d="M235.93,163.52c-5.49,5.3-23.06,12.53-29.93,15.91l9.09-0.57c-4.01,3.75-9.76,12.74-22.26,17.33
						c0,0,6.47,4.36,17.24,4.36l-13.26,12.79c0,0,10.89,4.45,23.96-7.77c4.36,3.22,2.08,12.12,2.08,12.12
						c12.46-7.2,8.76-13.73,10.99-17.81c0,0,5.49,3.98,11.18,0c-10.04-7.96-10.8-15.91-10.8-15.91s5.11,6.82,9.28,4.74
						C243.51,188.72,234.99,174.89,235.93,163.52z"/>
					<path class="st27" d="M242.75,208.23c0,0-0.57,7.39-3.88,10.42c0,0,8.15-0.85,10.23-9.38c1.08-4.41-2.37-5.69-2.37-5.69
						S243.03,205.67,242.75,208.23z"/>
					<path class="st27" d="M269.27,221.09c0,0-7.25-1.07-9.16-11.08C260.11,210.01,267.28,207.95,269.27,221.09z"/>
					<path class="st27" d="M250.8,179.72c0,0-7.39-6.72-5.4-13.73C245.4,165.99,252.32,171.2,250.8,179.72z"/>
				</g>
				<g>
					<defs>
						<path id="SVGID_00000130635591862409986030000006724889915690064517_" d="M325.99,191.94c-10.89,0-19.57-6.69-26.22-15.23
							c5.89-0.78,10.6-5.42,10.6-5.42c-0.09-0.01-0.18-0.03-0.26-0.04c-10.83-1.62-19.84-9.16-23.78-19.38
							c-2.47-6.42-3.66-11-3.66-11h-29.31h-29.28c0,0-2.19,8.45-6.82,18.47c-4.56,9.87-13.77,16.92-24.53,18.53
							c-0.09,0.01-0.18,0.03-0.28,0.04c0,0,3.79,3.73,8.83,5.07c-5.7,5.32-12.52,8.95-20.54,8.95c0,0,1.27,14.78,16.57,14.78
							l-16.57,12.49c0,0,22.03,8.37,35.16-4.76l-7.38,15.21c0,0,13.26,0.51,25.75-11.98l-1.93,7.14c0,0,6.88,0.54,16.14-5.36
							c0.72,4.93,0.93,11.2-1.93,13.68c0,0,9.37-2.52,14.77-11.14c8.47,5.05,17.02,6.64,17.02,6.64l-5.86-10.96
							c12.49,12.49,25.75,11.98,25.75,11.98l-8.92-13c13.13,13.13,36.71,2.55,36.71,2.55l-16.57-12.49
							C324.72,206.72,325.99,191.94,325.99,191.94z"/>
					</defs>
					<clipPath id="SVGID_00000119806308750451610590000008714471125523822727_">
						<use xlink:href="#SVGID_00000130635591862409986030000006724889915690064517_"  style="overflow:visible;"/>
					</clipPath>
					<path style="opacity:0.4;clip-path:url(#SVGID_00000119806308750451610590000008714471125523822727_);fill:#30554E;" d="
						M216.8,160.71c0,0,3.94,0.24,8.02-2.32l-3.93,7.77c0,0,24.42-1.47,32.85-8.81c0,0,13.92,11.18,31.16,7.68l-3.36-6.56
						c0,0,3.55,2.25,9.52,1.11v-12.6h-73.69L216.8,160.71z"/>
				</g>
				<g>
					<path class="st29" d="M253.35,148.6c7.39,8.92,23.71,9.43,23.71,9.43l-6.12-11.47c8.79,8.79,26.51,3.82,26.51,3.82l-12.75-8.41
						c13,0,14.53-9.94,14.53-9.94c-32.88,0-45.88-63.73-45.88-63.73s-12.97,63.73-45.85,63.73c0,0,1.53,9.94,14.53,9.94l-12.75,8.41
						c0,0,17.72,4.97,26.51-3.82l-6.12,11.47C243.6,158.03,253.35,148.6,253.35,148.6z"/>
					<path class="st30" d="M253.32,136.99c3.98,4.8,10.73,8.98,10.73,8.98l-1.27-10.08c4.73,4.73,15.73,5.66,15.73,5.66l-8.32-8.12
						c9.69,2.17,12.75-0.21,12.75-0.21c-20.38-5.27-27.21-32.16-29.04-41.92c-0.14-0.76-1.21-0.8-1.41-0.05
						c-2.51,9.59-10.98,35.95-29.27,41.63c0,0,4.59,3.4,13.26,0.55l-7.13,9.14c0,0,9.81-1.95,14.54-6.68l-1.27,9.4
						C242.61,145.3,249.35,141.79,253.32,136.99"/>
				</g>
				<g>
					<polygon class="st31" points="253.36,78.47 242.28,84.29 244.4,71.95 235.43,63.22 247.82,61.42 253.36,50.19 258.9,61.42 
						271.29,63.22 262.32,71.95 264.44,84.29 					"/>
					<polygon class="st32" points="253.36,70.41 242.28,84.29 250.37,68.24 235.43,63.22 251.51,64.73 253.36,50.19 255.21,64.73 
						271.29,63.22 256.35,68.24 264.44,84.29 					"/>
				</g>
				<g>
					<polygon class="st3" points="248.6,184.84 247.17,180.2 245.74,184.84 241.11,186.27 245.74,187.7 247.17,192.33 248.6,187.7 
						253.23,186.27 					"/>
				</g>
				<g>
					<polygon class="st3" points="259.63,108.39 258.65,105.2 257.67,108.39 254.48,109.37 257.67,110.36 258.65,113.54 
						259.63,110.36 262.82,109.37 					"/>
				</g>
				<g>
					<polygon class="st3" points="274.8,277.9 273.77,274.57 272.74,277.9 269.41,278.93 272.74,279.96 273.77,283.29 274.8,279.96 
						278.12,278.93 					"/>
				</g>
				<g>
					<polygon class="st3" points="224.06,344.5 222.63,339.87 221.2,344.5 216.57,345.93 221.2,347.36 222.63,352 224.06,347.36 
						228.69,345.93 					"/>
				</g>
				<path class="st33" d="M271.78,453.93h-36.84c-1.16,0-2.13-0.87-2.26-2.03l-5.19-47.74c-0.15-1.34,0.91-2.52,2.26-2.52h47.22
					c1.35,0,2.41,1.17,2.26,2.52l-5.19,47.74C273.91,453.06,272.94,453.93,271.78,453.93z"/>
				<polygon class="st34" points="227.22,401.65 228.15,410.27 278.57,410.27 279.5,401.65 				"/>
				<path class="st33" d="M282.38,407h-58.04c-1.24,0-2.24-1-2.24-2.24v-5.18c0-1.24,1-2.24,2.24-2.24h58.04
					c1.24,0,2.24,1,2.24,2.24v5.18C284.62,406,283.62,407,282.38,407z"/>
				<g>
					<path class="st35" d="M271.37,363.47l-7.86,5.41l0.49-9.53l-7.57-5.8l9.21-2.48l2.81-7.94c0.15-0.43,0.73-0.5,0.98-0.12
						l4.59,7.05l9.54,0.24l-5.99,7.42l2.71,9.14L271.37,363.47z"/>
					<path class="st31" d="M270.21,361.99l-7.86,5.41l0.49-9.53l-7.57-5.8l9.21-2.48l2.81-7.94c0.15-0.43,0.73-0.5,0.99-0.12
						l4.59,7.05l9.54,0.24l-5.99,7.42l2.71,9.14L270.21,361.99z"/>
					<path class="st6" d="M269.55,343.51l-0.24-2.23c-0.02-0.17-0.16-0.29-0.33-0.27l-0.06,0.01c0,0,0-0.01,0-0.01
						c-0.06-0.72-0.22-2.07-1.28-2.07c-1.06,0-0.98,1.54-0.92,2.26c0,0,0,0.01,0,0.01l-0.06,0.01c-0.17,0.01-0.29,0.16-0.28,0.32
						l0.15,2.23L269.55,343.51z M268.51,341.06l-0.68,0.06l-0.02,0l-0.68,0.06c0,0,0-0.01,0-0.01c-0.04-0.49-0.11-1.82,0.55-1.82
						c0.66,0,0.8,1.2,0.84,1.7C268.51,341.05,268.51,341.05,268.51,341.06z"/>
					<path class="st36" d="M269.18,342.64l-0.06-0.68c-0.03-0.35-0.32-0.61-0.67-0.62l-0.67-0.01c0,0-0.13,0.02-0.03,0.07
						c0.72,0.35,1.14,0.88,1.32,1.27C269.18,342.9,269.18,342.64,269.18,342.64z"/>
					<path class="st36" d="M269.69,345.87l2.4,3.45c0.21,0.26,0.53,0.42,0.87,0.44l4.89,0.22l-5.62,1.18
						c-0.59,0.12-1.18-0.21-1.37-0.78L269.69,345.87z"/>
					<path class="st37" d="M259.6,353.11l4.18,3.39c0.34,0.27,0.51,0.7,0.46,1.13l-0.78,6.99l3.07-7.75
						c0.27-0.68-0.09-1.44-0.78-1.68L259.6,353.11z"/>
				</g>
				<g>
					<path class="st35" d="M239.16,283.61l-8.99,2.17l5.48-9.82l-5.1-8.48l9.22,2.21l5.65-6.24c0.31-0.34-0.08-0.45,0,0l1.36,8.32
						l9.82,4.14l-7.3,4.05l-1.75,10.92L239.16,283.61z"/>
					<path class="st31" d="M239.79,281.51l-9.34,1.96l4.12-8.6l-4.75-8.27l9.45,1.26l5.65-6.24c0.31-0.34,0.87-0.18,0.95,0.27
						l1.52,8.28l8.7,3.9l-8.39,4.53l-1.02,9.48L239.79,281.51z"/>
					<path class="st6" d="M246.3,264.21l0.64-2.14c0.05-0.16-0.04-0.33-0.2-0.38l-0.06-0.02c0,0,0-0.01,0-0.01
						c0.22-0.69,0.59-2-0.38-2.4c-0.97-0.41-1.5,1.04-1.72,1.73c0,0,0,0.01,0,0.01l-0.06-0.02c-0.16-0.05-0.33,0.03-0.38,0.19
						l-0.72,2.12L246.3,264.21z M246.29,261.54l-0.65-0.21l-0.02-0.01l-0.65-0.21c0,0,0-0.01,0-0.01c0.15-0.47,0.6-1.72,1.21-1.47
						C246.78,259.89,246.45,261.06,246.29,261.54C246.29,261.53,246.29,261.54,246.29,261.54z"/>
					<path class="st36" d="M246.3,263.26l0.2-0.65c0.1-0.33-0.06-0.69-0.38-0.83l-0.61-0.27c0,0-0.13-0.03-0.05,0.06
						c0.53,0.6,0.71,1.25,0.73,1.69C246.2,263.5,246.3,263.26,246.3,263.26z"/>
					<path class="st36" d="M245.52,266.44l0.89,4.11c0.1,0.32,0.33,0.59,0.63,0.74l4.43,2.09l-5.64-1.08
						c-0.59-0.11-1-0.65-0.96-1.25L245.52,266.44z"/>
					<path class="st37" d="M233.42,269.23l2.55,4.74c0.21,0.38,0.2,0.84-0.01,1.22l-3.42,6.15l5.82-5.97
						c0.51-0.52,0.48-1.36-0.07-1.85L233.42,269.23z"/>
				</g>
				<g>
					<path class="st35" d="M283.25,208.2l-5.09,5.36l-0.59-8.98l-7.11-3.48l7.15-2.52l1.08-6.65c0.06-0.36-0.25-0.27,0,0l4.52,5
						l8.39-1.49l-3.14,5.89l3.57,8.1L283.25,208.2z"/>
					<path class="st31" d="M282.76,206.52l-5.42,5.37l-0.97-7.57l-6.78-3.5l6.9-3.26l1.08-6.65c0.06-0.36,0.51-0.5,0.76-0.23
						l4.62,4.9l7.54-1.16l-3.67,6.69l3.43,6.82L282.76,206.52z"/>
					<path class="st6" d="M279.61,192.07l-0.5-1.72c-0.04-0.13-0.17-0.2-0.3-0.17l-0.05,0.01c0,0,0-0.01,0-0.01
						c-0.15-0.56-0.47-1.6-1.3-1.45c-0.83,0.15-0.55,1.35-0.4,1.91c0,0,0,0.01,0,0.01l-0.05,0.01c-0.13,0.03-0.21,0.17-0.17,0.3
						l0.43,1.74L279.61,192.07z M278.45,190.28l-0.53,0.14l-0.02,0l-0.53,0.14c0,0,0-0.01,0-0.01c-0.1-0.38-0.34-1.42,0.17-1.51
						C278.06,188.96,278.34,189.89,278.45,190.28C278.45,190.27,278.45,190.28,278.45,190.28z"/>
					<path class="st36" d="M279.2,191.43l-0.15-0.53c-0.08-0.27-0.34-0.44-0.61-0.39l-0.53,0.08c0,0-0.1,0.03-0.01,0.06
						c0.62,0.17,1.02,0.53,1.22,0.82C279.24,191.63,279.2,191.43,279.2,191.43z"/>
					<path class="st36" d="M280.06,193.9l2.38,2.37c0.21,0.18,0.48,0.26,0.75,0.22l3.88-0.52l-4.26,1.73
						c-0.45,0.18-0.96,0-1.19-0.42L280.06,193.9z"/>
					<path class="st37" d="M273.14,201.04l3.77,2.07c0.3,0.17,0.5,0.48,0.53,0.83l0.37,5.62l1.32-6.54
						c0.12-0.57-0.27-1.12-0.85-1.21L273.14,201.04z"/>
				</g>
				<g>
					<path class="st35" d="M253.72,142.74l-6.59,1.78l3.84-7.36l-3.94-6.16l6.85,1.44l4.04-4.72c0.22-0.26-0.07-0.33,0,0l1.17,6.11
						l7.33,2.85l-5.31,3.14l-1.07,8.1L253.72,142.74z"/>
					<path class="st31" d="M254.14,141.18l-6.85,1.64l2.87-6.43l-3.67-6.01l7.01,0.74l4.04-4.72c0.22-0.26,0.64-0.15,0.71,0.18
						l1.29,6.08l6.51,2.7l-6.1,3.52l-0.56,7.02L254.14,141.18z"/>
					<path class="st6" d="M258.59,128.27l0.43-1.6c0.03-0.12-0.04-0.24-0.16-0.28l-0.04-0.01c0,0,0,0,0-0.01
						c0.15-0.51,0.4-1.49-0.33-1.77c-0.73-0.28-1.09,0.8-1.23,1.31c0,0,0,0.01,0,0.01l-0.04-0.01c-0.12-0.03-0.24,0.03-0.28,0.15
						l-0.49,1.58L258.59,128.27z M258.53,126.3l-0.49-0.14l-0.01,0l-0.49-0.14c0,0,0-0.01,0-0.01c0.1-0.35,0.41-1.28,0.86-1.11
						C258.86,125.08,258.64,125.94,258.53,126.3C258.53,126.3,258.53,126.3,258.53,126.3z"/>
					<path class="st36" d="M258.57,127.57l0.14-0.49c0.07-0.25-0.06-0.51-0.3-0.61l-0.46-0.19c0,0-0.1-0.02-0.04,0.04
						c0.4,0.43,0.55,0.91,0.57,1.23C258.5,127.75,258.57,127.57,258.57,127.57z"/>
					<path class="st36" d="M258.06,129.93l0.74,3.02c0.08,0.24,0.25,0.43,0.48,0.53l3.31,1.45l-4.19-0.68
						c-0.44-0.07-0.75-0.46-0.74-0.9L258.06,129.93z"/>
					<path class="st37" d="M249.18,132.24l1.98,3.45c0.16,0.28,0.17,0.62,0.02,0.9l-2.4,4.61l4.18-4.53
						c0.37-0.4,0.32-1.02-0.09-1.36L249.18,132.24z"/>
				</g>
				<g>
					<path class="st35" d="M326.74,342.26c1.42,4.53-1.1,9.35-5.63,10.77c-4.53,1.42-9.35-1.1-10.77-5.63
						c-1.42-4.53,1.1-9.35,5.63-10.77C320.5,335.21,325.32,337.73,326.74,342.26z"/>
					<path class="st4" d="M328.05,340.91c1.42,4.53-1.1,9.35-5.63,10.77c-4.53,1.42-9.35-1.1-10.77-5.63
						c-1.42-4.53,1.1-9.35,5.63-10.77C321.81,333.86,326.63,336.38,328.05,340.91z"/>
					<path class="st37" d="M319,349.16c-1.97-0.67-4.26-1.73-4.47-4.88c-0.37-2.78-2.22-2.42-1.59,0.75
						C314.72,351.33,320.76,349.76,319,349.16z"/>
					<path class="st36" d="M326.13,342.36c-0.58,1.25-1.29-0.76-2.78-1.91c-1.49-1.15-3.21-1-2.63-2.25
						c0.58-1.25,2.26-1.33,3.75-0.19C325.97,339.16,326.71,341.11,326.13,342.36z"/>
					<g>
						<g>
							<g>
								<g>
									<path class="st31" d="M317.35,335.54c-1,0.31-2.13-0.54-2.57-1.94c-0.44-1.4,0-2.74,1.01-3.06c1-0.31,2.13,0.54,2.57,1.94
										C318.79,333.89,318.35,335.23,317.35,335.54z M315.98,331.18c-0.63,0.2-0.89,1.22-0.58,2.23c0.32,1.01,1.12,1.7,1.75,1.5
										c0.63-0.2,0.89-1.22,0.58-2.23C317.41,331.67,316.61,330.98,315.98,331.18z"/>
								</g>
							</g>
							<path class="st31" d="M319.55,334.9l-0.61-1.93c-0.07-0.21-0.29-0.33-0.5-0.26c-1.36,0.17-2.56,0.53-3.58,1.12
								c-0.21,0.07-0.33,0.29-0.26,0.5l0.61,1.93C316.79,336.17,318.23,335.7,319.55,334.9z"/>
						</g>
					</g>
					<path class="st36" d="M318.93,334.32l-0.19-0.66c-0.1-0.33-0.43-0.54-0.77-0.49l-0.66,0.11c0,0-0.13,0.04-0.01,0.07
						c0.77,0.21,1.28,0.65,1.53,1.01C318.98,334.57,318.93,334.32,318.93,334.32z"/>
				</g>
				<g>
					<path class="st35" d="M209.27,335.34c-1.06,4.63-5.67,7.52-10.29,6.46c-4.63-1.06-7.52-5.67-6.46-10.29
						c1.06-4.63,5.67-7.52,10.29-6.46C207.43,326.1,210.33,330.71,209.27,335.34z"/>
					<path class="st4" d="M209.91,336.27c-2.2,4.21-7.39,5.83-11.6,3.63c-4.21-2.2-5.83-7.39-3.63-11.6
						c2.2-4.21,7.39-5.83,11.6-3.63C210.49,326.88,212.11,332.07,209.91,336.27z"/>
					<path class="st37" d="M197.68,335.71c-0.92-1.86-1.79-4.23,0.29-6.61c1.7-2.23,0.15-3.28-1.65-0.59
						C193.12,334.21,198.51,337.38,197.68,335.71z"/>
					<path class="st36" d="M207.53,335.94c-1.29,0.48-0.37-1.45-0.61-3.32c-0.24-1.87-1.56-2.97-0.27-3.45
						c1.29-0.48,2.54,0.65,2.79,2.52C209.68,333.56,208.83,335.46,207.53,335.94z"/>
					<g>
						<g>
							<g>
								<g>
									<path class="st31" d="M206.14,324.91c-0.93-0.49-1.13-1.89-0.45-3.19s1.94-1.94,2.88-1.45c0.93,0.49,1.13,1.89,0.45,3.19
										C208.34,324.76,207.07,325.39,206.14,324.91z M208.26,320.85c-0.58-0.31-1.49,0.23-1.98,1.17
										c-0.49,0.94-0.41,1.99,0.17,2.3c0.58,0.31,1.49-0.23,1.98-1.17C208.92,322.21,208.85,321.16,208.26,320.85z"/>
								</g>
							</g>
							<path class="st31" d="M208.15,326.01l0.94-1.8c0.1-0.2,0.03-0.44-0.17-0.54c-1.08-0.84-2.19-1.43-3.32-1.74
								c-0.2-0.1-0.44-0.03-0.54,0.17l-0.94,1.8C205.3,324.95,206.66,325.64,208.15,326.01z"/>
						</g>
					</g>
					<path class="st36" d="M208.13,325.16l0.33-0.6c0.17-0.3,0.08-0.69-0.2-0.89l-0.54-0.39c0,0-0.12-0.06-0.06,0.04
						c0.4,0.7,0.44,1.37,0.37,1.8C207.98,325.38,208.13,325.16,208.13,325.16z"/>
				</g>
				<g>
					<path class="st35" d="M299.74,260.06c2.93,3.73,2.29,9.13-1.44,12.07c-3.73,2.93-9.13,2.29-12.07-1.44
						c-2.93-3.73-2.29-9.13,1.44-12.07C291.4,255.68,296.8,256.33,299.74,260.06z"/>
					<path class="st4" d="M302.08,260.05c1.89,4.35-0.11,9.41-4.46,11.3c-4.35,1.89-9.41-0.11-11.3-4.46
						c-1.89-4.35,0.11-9.42,4.46-11.3C295.13,253.7,300.19,255.69,302.08,260.05z"/>
					<path class="st37" d="M293.96,269.21c-2.03-0.46-4.42-1.26-4.96-4.37c-0.67-2.72-2.46-2.17-1.5,0.91
						C289.93,271.82,295.77,269.62,293.96,269.21z"/>
					<path class="st36" d="M300.33,261.69c-0.44,1.31-1.36-0.62-2.97-1.61c-1.61-0.98-3.29-0.65-2.85-1.96
						c0.44-1.31,2.11-1.57,3.71-0.58C299.83,258.53,300.77,260.38,300.33,261.69z"/>
					<g>
						<g>
							<g>
								<g>
									<path class="st31" d="M290.87,255.84c-0.96,0.42-2.18-0.31-2.76-1.65c-0.58-1.35-0.29-2.73,0.68-3.15
										c0.96-0.42,2.18,0.31,2.76,1.65C292.13,254.04,291.83,255.42,290.87,255.84z M289.05,251.65c-0.6,0.26-0.76,1.31-0.34,2.28
										c0.42,0.97,1.29,1.57,1.89,1.31c0.6-0.26,0.76-1.31,0.34-2.28C290.52,251.99,289.65,251.39,289.05,251.65z"/>
								</g>
							</g>
							<path class="st31" d="M292.99,254.97l-0.81-1.86c-0.09-0.2-0.32-0.3-0.53-0.21c-1.34,0.31-2.49,0.8-3.44,1.49
								c-0.2,0.09-0.3,0.32-0.21,0.53l0.81,1.86C290.38,256.52,291.77,255.9,292.99,254.97z"/>
						</g>
					</g>
					<path class="st36" d="M292.31,254.46l-0.26-0.63c-0.13-0.32-0.48-0.5-0.82-0.4l-0.65,0.18c0,0-0.12,0.06-0.01,0.08
						c0.79,0.13,1.34,0.51,1.63,0.84C292.39,254.71,292.31,254.46,292.31,254.46z"/>
				</g>
				<g>
					<path class="st35" d="M232.4,200.36c0.11,4.74-3.65,8.68-8.39,8.79c-4.74,0.11-8.68-3.65-8.79-8.39
						c-0.11-4.74,3.65-8.68,8.39-8.79C228.36,191.86,232.29,195.62,232.4,200.36z"/>
					<path class="st4" d="M233.26,201.11c-1.1,4.62-5.74,7.47-10.35,6.37c-4.62-1.1-7.47-5.74-6.37-10.35
						c1.1-4.62,5.74-7.47,10.35-6.37C231.51,191.85,234.36,196.49,233.26,201.11z"/>
					<path class="st37" d="M221.27,203.56c-1.35-1.58-2.78-3.66-1.35-6.48c1.1-2.58-0.66-3.22-1.74-0.17
						C216.47,203.23,222.47,204.97,221.27,203.56z"/>
					<path class="st36" d="M230.87,201.37c-1.14,0.78-0.71-1.32-1.41-3.07c-0.69-1.75-2.25-2.5-1.11-3.28
						c1.14-0.78,2.62,0.01,3.32,1.76C232.37,198.54,232.01,200.59,230.87,201.37z"/>
					<g>
						<g>
							<g>
								<g>
									<path class="st31" d="M226.81,191.01c-1.02-0.24-1.56-1.55-1.22-2.98c0.34-1.43,1.41-2.35,2.43-2.11
										c1.02,0.24,1.56,1.55,1.22,2.98S227.84,191.26,226.81,191.01z M227.87,186.57c-0.64-0.15-1.39,0.59-1.64,1.62
										c-0.25,1.03,0.09,2.03,0.73,2.19c0.64,0.15,1.39-0.59,1.64-1.62C228.85,187.72,228.51,186.72,227.87,186.57z"/>
								</g>
							</g>
							<path class="st31" d="M229.03,191.59l0.47-1.97c0.05-0.21-0.08-0.43-0.3-0.48c-1.26-0.55-2.47-0.85-3.64-0.87
								c-0.21-0.05-0.43,0.08-0.48,0.3l-0.47,1.97C226.01,191.27,227.49,191.6,229.03,191.59z"/>
						</g>
					</g>
					<path class="st36" d="M228.8,190.77l0.18-0.66c0.09-0.34-0.09-0.69-0.41-0.81l-0.62-0.25c0,0-0.13-0.03-0.05,0.06
						c0.55,0.58,0.76,1.22,0.8,1.65C228.71,191.02,228.8,190.77,228.8,190.77z"/>
				</g>
				<g>
					<path class="st6" d="M350.33,315.53c-7.51,2.06-15.17,3.66-22.93,4.69c-7.77,0.94-15.62,1.38-23.48,1.17
						c-7.86-0.16-15.7-1.04-23.43-2.41c-7.74-1.39-15.35-3.34-22.85-5.57c-7.48-2.3-14.84-4.89-22.14-7.55
						c-7.28-2.7-14.55-5.34-21.86-7.74c-7.33-2.34-14.74-4.39-22.33-5.47c-7.57-1.14-15.29-1.33-22.98-0.49
						c-0.21,0.02-0.41-0.13-0.43-0.34c-0.02-0.2,0.11-0.38,0.3-0.43c7.63-1.7,15.58-2.03,23.42-1.38c7.85,0.66,15.57,2.37,23.1,4.5
						c15.08,4.27,29.5,10.09,44.25,14.47c7.36,2.27,14.8,4.18,22.33,5.65c7.52,1.53,15.14,2.46,22.79,2.96
						c7.66,0.46,15.35,0.43,23.04-0.07c7.69-0.51,15.34-1.6,23-2.84l0.01,0c0.23-0.04,0.46,0.12,0.49,0.36
						C350.68,315.27,350.54,315.47,350.33,315.53z"/>
				</g>
				<g>
					<path class="st6" d="M303.58,182.32c-8.14,0.69-16.44-0.21-24.39-2.06c-3.98-0.89-7.9-2.01-11.77-3.11l-5.78-1.7
						c-1.92-0.57-3.84-1.12-5.76-1.61c-7.65-2.13-15.39-3.63-23.27-4.1c-7.88-0.49-15.84,0.08-23.86,1.03l-0.01,0
						c-0.17,0.02-0.32-0.1-0.34-0.26c-0.02-0.15,0.07-0.28,0.21-0.32c7.72-2.48,15.85-3.94,24.08-4.04c2.06,0,4.12-0.08,6.17,0.16
						c2.05,0.17,4.12,0.28,6.15,0.62c2.04,0.29,4.08,0.61,6.07,1.07l3.01,0.64c1,0.23,1.98,0.49,2.97,0.74
						c1.98,0.51,3.93,1.08,5.87,1.66c1.95,0.58,3.88,1.15,5.8,1.76l5.74,1.8l5.73,1.71c7.64,2.21,15.4,3.74,23.39,4.43
						c0.44,0.04,0.76,0.42,0.73,0.86C304.27,181.99,303.96,182.29,303.58,182.32z"/>
				</g>
				<g>
					<path class="st6" d="M253.19,370.01c-10.54,0.74-21.16-1.28-31.19-4.43c-5.04-1.54-9.95-3.46-14.81-5.44
						c-4.84-2.01-9.59-4.2-14.33-6.37l-14.11-6.63c-4.68-2.22-9.41-4.28-14.17-6.25c-9.53-3.85-19.37-7.02-29.72-7.83
						c-0.23-0.02-0.41-0.22-0.39-0.45c0.02-0.21,0.19-0.38,0.39-0.39c5.25-0.39,10.56,0.1,15.76,1.04c5.2,0.98,10.3,2.41,15.27,4.14
						c4.99,1.68,9.84,3.71,14.65,5.76c4.8,2.09,9.53,4.29,14.26,6.44c4.7,2.21,9.41,4.37,14.14,6.45c4.71,2.11,9.49,4.05,14.3,5.85
						c9.64,3.54,19.61,6.21,29.94,6.95c0.32,0.02,0.57,0.3,0.54,0.63C253.71,369.76,253.47,369.99,253.19,370.01z"/>
				</g>
				<g>
					<path class="st6" d="M224.45,124.82c4.18,0.38,8.32-0.44,12.55-1.51l6.41-1.75c2.17-0.59,4.37-1.12,6.59-1.64
						c1.12-0.22,2.24-0.45,3.37-0.65c1.14-0.17,2.27-0.37,3.41-0.52l3.45-0.3c1.15-0.08,2.31-0.07,3.47-0.09
						c4.62,0.03,9.24,0.71,13.59,2.09c0.35,0.11,0.54,0.48,0.43,0.83c-0.09,0.29-0.36,0.47-0.65,0.46l-0.02,0
						c-4.47-0.16-8.84-0.12-13.16,0.33c-4.32,0.45-8.59,1.29-12.86,2.34c-4.28,0.99-8.56,2.25-13.08,3.1
						c-2.27,0.41-4.58,0.75-6.97,0.77c-2.36,0.1-4.82-0.31-7.1-1.01c-0.67-0.21-1.04-0.92-0.83-1.58c0.18-0.58,0.74-0.94,1.32-0.89
						L224.45,124.82z"/>
				</g>
				<circle class="st3" cx="236.28" cy="133.85" r="2.31"/>
				<path class="st3" d="M254.92,161.1c0,1.28-1.03,2.31-2.31,2.31c-1.28,0-2.31-1.03-2.31-2.31c0-1.28,1.03-2.31,2.31-2.31
					C253.89,158.79,254.92,159.82,254.92,161.1z"/>
				<circle class="st3" cx="271.65" cy="186.41" r="2.31"/>
				<circle class="st3" cx="195.88" cy="257.89" r="2.31"/>
				<circle class="st3" cx="163.78" cy="353.59" r="2.31"/>
				<path class="st3" d="M305.69,361.08c0,1.28-1.03,2.31-2.31,2.31s-2.31-1.03-2.31-2.31c0-1.28,1.03-2.31,2.31-2.31
					S305.69,359.8,305.69,361.08z"/>
				<circle class="st3" cx="231.71" cy="328.14" r="2.31"/>
				<path class="st3" d="M316.51,279.61c0,1.28-1.03,2.31-2.31,2.31c-1.28,0-2.31-1.03-2.31-2.31s1.03-2.31,2.31-2.31
					C315.48,277.3,316.51,278.34,316.51,279.61z"/>
				<path class="st3" d="M269.97,151.49c0,0.67-0.54,1.21-1.21,1.21c-0.67,0-1.21-0.54-1.21-1.21s0.54-1.21,1.21-1.21
					C269.43,150.28,269.97,150.82,269.97,151.49z"/>
				<path class="st3" d="M259.89,208.13c0,0.67-0.54,1.21-1.21,1.21c-0.67,0-1.21-0.54-1.21-1.21c0-0.67,0.54-1.21,1.21-1.21
					C259.35,206.92,259.89,207.46,259.89,208.13z"/>
				<path class="st3" d="M270.72,253.3c0,0.67-0.54,1.21-1.21,1.21c-0.67,0-1.21-0.54-1.21-1.21s0.54-1.21,1.21-1.21
					C270.17,252.09,270.72,252.63,270.72,253.3z"/>
				<path class="st3" d="M213.05,278.49c0,0.67-0.54,1.21-1.21,1.21s-1.21-0.54-1.21-1.21c0-0.67,0.54-1.21,1.21-1.21
					S213.05,277.82,213.05,278.49z"/>
				<path class="st3" d="M183.28,321.33c0,0.67-0.54,1.21-1.21,1.21s-1.21-0.54-1.21-1.21c0-0.67,0.54-1.21,1.21-1.21
					S183.28,320.66,183.28,321.33z"/>
				<path class="st3" d="M307.02,324.13c0,0.67-0.54,1.21-1.21,1.21c-0.67,0-1.21-0.54-1.21-1.21c0-0.67,0.54-1.21,1.21-1.21
					C306.48,322.91,307.02,323.46,307.02,324.13z"/>
				<path class="st3" d="M247.48,355.29c0,0.67-0.54,1.21-1.21,1.21c-0.67,0-1.21-0.54-1.21-1.21c0-0.67,0.54-1.21,1.21-1.21
					C246.94,354.08,247.48,354.62,247.48,355.29z"/>
				<path class="st3" d="M222.1,180.51c0,0.67-0.54,1.21-1.21,1.21s-1.21-0.54-1.21-1.21c0-0.67,0.54-1.21,1.21-1.21
					S222.1,179.84,222.1,180.51z"/>
				<g>
					<defs>
						<path id="SVGID_00000028313104170867477460000004779106218542694564_" d="M282.38,397.34h-58.04c-1.24,0-2.24,1-2.24,2.24
							v5.18c0,1.24,1,2.24,2.24,2.24h3.46l4.88,44.91c0.13,1.15,1.1,2.03,2.26,2.03h36.84c1.16,0,2.13-0.87,2.26-2.03l4.88-44.91
							h3.46c1.24,0,2.24-1,2.24-2.24v-5.18C284.62,398.34,283.62,397.34,282.38,397.34z"/>
					</defs>
					<clipPath id="SVGID_00000018197121243098018620000002994427446784922804_">
						<use xlink:href="#SVGID_00000028313104170867477460000004779106218542694564_"  style="overflow:visible;"/>
					</clipPath>
					<path style="opacity:0.5;clip-path:url(#SVGID_00000018197121243098018620000002994427446784922804_);fill:#892F14;" d="
						M251.68,396.72c0,0,7.17,18.83,36.16,32.28v-33.34L251.68,396.72z"/>
					<path style="opacity:0.5;clip-path:url(#SVGID_00000018197121243098018620000002994427446784922804_);fill:#892F14;" d="
						M251.64,396.69c0,0-15.63,20.1-23.26,20.1l-14.59-20.1H251.64z"/>
				</g>
			</g>
			<g>
				<rect x="376.03" y="437.53" class="st12" width="56.86" height="17.28"/>
				<g>
					<g>
						<path class="st3" d="M382.19,443.86c0,0.46-0.37,0.84-0.84,0.84c-0.46,0-0.84-0.37-0.84-0.84s0.37-0.84,0.84-0.84
							C381.82,443.02,382.19,443.39,382.19,443.86z"/>
						<path class="st3" d="M397.59,443.86c0,0.46-0.37,0.84-0.84,0.84s-0.84-0.37-0.84-0.84s0.37-0.84,0.84-0.84
							S397.59,443.39,397.59,443.86z"/>
						<path class="st3" d="M412.99,443.86c0,0.46-0.37,0.84-0.84,0.84c-0.46,0-0.84-0.37-0.84-0.84s0.37-0.84,0.84-0.84
							C412.62,443.02,412.99,443.39,412.99,443.86z"/>
						<path class="st3" d="M428.39,443.86c0,0.46-0.37,0.84-0.84,0.84c-0.46,0-0.84-0.37-0.84-0.84s0.37-0.84,0.84-0.84
							C428.01,443.02,428.39,443.39,428.39,443.86z"/>
					</g>
					<g>
						<path class="st3" d="M389.89,447.87c0,0.46-0.37,0.84-0.84,0.84c-0.46,0-0.84-0.37-0.84-0.84s0.37-0.84,0.84-0.84
							C389.52,447.04,389.89,447.41,389.89,447.87z"/>
						<path class="st3" d="M405.29,447.87c0,0.46-0.37,0.84-0.84,0.84c-0.46,0-0.84-0.37-0.84-0.84s0.37-0.84,0.84-0.84
							C404.92,447.04,405.29,447.41,405.29,447.87z"/>
						<path class="st3" d="M420.69,447.87c0,0.46-0.37,0.84-0.84,0.84c-0.46,0-0.84-0.37-0.84-0.84s0.37-0.84,0.84-0.84
							C420.31,447.04,420.69,447.41,420.69,447.87z"/>
					</g>
					<g>
						<path class="st3" d="M382.19,451.89c0,0.46-0.37,0.84-0.84,0.84c-0.46,0-0.84-0.37-0.84-0.84c0-0.46,0.37-0.84,0.84-0.84
							C381.82,451.05,382.19,451.42,382.19,451.89z"/>
						<path class="st3" d="M397.59,451.89c0,0.46-0.37,0.84-0.84,0.84s-0.84-0.37-0.84-0.84c0-0.46,0.37-0.84,0.84-0.84
							S397.59,451.42,397.59,451.89z"/>
						<path class="st3" d="M412.99,451.89c0,0.46-0.37,0.84-0.84,0.84c-0.46,0-0.84-0.37-0.84-0.84c0-0.46,0.37-0.84,0.84-0.84
							C412.62,451.05,412.99,451.42,412.99,451.89z"/>
						<path class="st3" d="M428.39,451.89c0,0.46-0.37,0.84-0.84,0.84c-0.46,0-0.84-0.37-0.84-0.84c0-0.46,0.37-0.84,0.84-0.84
							C428.01,451.05,428.39,451.42,428.39,451.89z"/>
					</g>
				</g>
				<polygon class="st14" points="376.03,437.53 376.03,441.97 432.75,443.22 432.88,437.53 				"/>
				<rect x="374.62" y="434.87" class="st12" width="59.88" height="5.43"/>
			</g>
			<g>
				<g>
					<g>
						<g>
							<g>
								<path class="st39" d="M162.17,413.15c0,0,2.09,9.23-8.36,9.23h5.05c0,0,8.27-0.09,8.27-7.75L162.17,413.15z"/>
								<path class="st6" d="M153.81,422.37c0,0-1.1-5.4,6.96-9.23c0.85-0.4,1.84-0.43,2.71-0.06l3.66,1.54c0,0-7.66,2.53-10.8,7.75
									H153.81z"/>
							</g>
							<g>
								<path class="st39" d="M145.46,413.15c0,0-2.09,9.23,8.36,9.23h-5.05c0,0-8.27-0.09-8.27-7.75L145.46,413.15z"/>
								<path class="st6" d="M153.82,422.37c0,0,1.1-5.4-6.96-9.23c-0.85-0.4-1.84-0.43-2.71-0.06l-3.66,1.54
									c0,0,7.66,2.53,10.8,7.75H153.82z"/>
							</g>
							<path class="st40" d="M154.47,418.73c-0.39,0.83-0.58,1.58-0.66,2.18c-0.08-0.6-0.27-1.35-0.66-2.18
								c-0.89,0.44-1.32,1.73-1.32,3.26c0,0.13,0.02,0.26,0.02,0.38h1.94h0.01h1.92c0.01-0.13,0.02-0.25,0.02-0.38
								C155.77,420.45,155.36,419.17,154.47,418.73z"/>
						</g>
						<path class="st39" d="M155.51,421.99c0,1.47-0.76,2.66-1.7,2.66c-0.94,0-1.7-1.19-1.7-2.66c0-1.47,0.76-2.66,1.7-2.66
							C154.75,419.33,155.51,420.52,155.51,421.99z"/>
					</g>
				</g>
				<polygon class="st4" points="171.17,463.22 137.65,463.22 139.85,422.38 168.97,422.38 				"/>
				<polygon class="st18" points="169.03,423.59 139.78,423.59 139.52,428.57 169.3,428.57 				"/>
				<rect x="138.06" y="422.38" class="st41" width="32.26" height="4.97"/>
				<g>
					<defs>
						<polygon id="SVGID_00000089533037866662534480000009385411540927819698_" points="171.17,463.22 137.65,463.22 139.85,422.38 
							168.97,422.38 						"/>
					</defs>
					<clipPath id="SVGID_00000129179369190207148660000013181303670032126597_">
						<use xlink:href="#SVGID_00000089533037866662534480000009385411540927819698_"  style="overflow:visible;"/>
					</clipPath>
					
						<line style="clip-path:url(#SVGID_00000129179369190207148660000013181303670032126597_);fill:none;stroke:#FFFFFF;stroke-width:1.2432;stroke-miterlimit:10;" x1="133.82" y1="436.57" x2="178.33" y2="436.57"/>
					
						<line style="clip-path:url(#SVGID_00000129179369190207148660000013181303670032126597_);fill:none;stroke:#FFFFFF;stroke-width:1.2432;stroke-miterlimit:10;" x1="133.82" y1="441.33" x2="178.33" y2="441.33"/>
					
						<line style="clip-path:url(#SVGID_00000129179369190207148660000013181303670032126597_);fill:none;stroke:#FFFFFF;stroke-width:1.2432;stroke-miterlimit:10;" x1="133.82" y1="446.09" x2="178.33" y2="446.09"/>
					
						<line style="clip-path:url(#SVGID_00000129179369190207148660000013181303670032126597_);fill:none;stroke:#FFFFFF;stroke-width:1.2432;stroke-miterlimit:10;" x1="133.82" y1="450.85" x2="178.33" y2="450.85"/>
				</g>
				<rect x="150.75" y="422.38" class="st6" width="6.14" height="40.84"/>
			</g>
			<g>
				<g>
					<g>
						<g>
							<g>
								<path class="st4" d="M288.52,413.57h-2.77c-0.6,0-1.1,0.47-1.12,1.08c-0.05,1.73,0.07,6.17,1.54,9.98h1.94
									c1.46-3.81,1.59-8.26,1.54-9.98C289.62,414.04,289.13,413.57,288.52,413.57z"/>
								<path class="st43" d="M287.23,422.09c-0.16-1.21-0.74-3-2.55-4.82c0.14,2.1,0.52,4.87,1.48,7.37h1.06h0.01h0.86
									c0.93-2.41,1.32-5.07,1.46-7.14C287.93,419.23,287.39,420.93,287.23,422.09z"/>
								<g>
									<path class="st9" d="M295.75,415.23c0,0,2.13,9.41-8.52,9.41h5.15c0,0,8.43-0.09,8.43-7.9L295.75,415.23z"/>
									<path class="st4" d="M287.23,424.63c0,0-1.12-5.51,7.09-9.41c0.87-0.41,1.88-0.44,2.76-0.06l3.73,1.57
										c0,0-7.81,2.57-11.01,7.9H287.23z"/>
								</g>
								<g>
									<path class="st9" d="M278.72,415.23c0,0-2.13,9.41,8.52,9.41h-5.15c0,0-8.43-0.09-8.43-7.9L278.72,415.23z"/>
									<path class="st4" d="M287.24,424.63c0,0,1.12-5.51-7.09-9.41c-0.87-0.41-1.88-0.44-2.76-0.06l-3.73,1.57
										c0,0,7.81,2.57,11.01,7.9H287.24z"/>
								</g>
								<path class="st9" d="M287.91,420.92c-0.4,0.84-0.59,1.61-0.67,2.22c-0.08-0.61-0.27-1.38-0.67-2.22
									c-0.91,0.45-1.34,1.76-1.34,3.33c0,0.13,0.02,0.26,0.03,0.39h1.98h0.01h1.96c0.01-0.13,0.03-0.26,0.03-0.39
									C289.23,422.68,288.81,421.36,287.91,420.92z"/>
							</g>
							<path class="st11" d="M288.97,424.24c0,1.5-0.78,2.71-1.73,2.71c-0.96,0-1.73-1.21-1.73-2.71c0-1.5,0.78-2.71,1.73-2.71
								C288.19,421.53,288.97,422.74,288.97,424.24z"/>
						</g>
					</g>
					<rect x="269.5" y="424.63" class="st12" width="73.3" height="36.02"/>
					<g>
						<path class="st3" d="M287.84,435.36c0,0.62-0.5,1.12-1.12,1.12c-0.62,0-1.12-0.5-1.12-1.12c0-0.62,0.5-1.12,1.12-1.12
							C287.34,434.24,287.84,434.74,287.84,435.36z"/>
						<path class="st3" d="M308.46,435.36c0,0.62-0.5,1.12-1.12,1.12s-1.12-0.5-1.12-1.12c0-0.62,0.5-1.12,1.12-1.12
							S308.46,434.74,308.46,435.36z"/>
						<path class="st3" d="M277.53,450.95c0,0.62-0.5,1.12-1.12,1.12c-0.62,0-1.12-0.5-1.12-1.12s0.5-1.12,1.12-1.12
							C277.03,449.83,277.53,450.33,277.53,450.95z"/>
						<path class="st3" d="M298.15,450.95c0,0.62-0.5,1.12-1.12,1.12c-0.62,0-1.12-0.5-1.12-1.12s0.5-1.12,1.12-1.12
							C297.65,449.83,298.15,450.33,298.15,450.95z"/>
						<path class="st3" d="M277.53,428.74c0,0.62-0.5,1.12-1.12,1.12c-0.62,0-1.12-0.5-1.12-1.12c0-0.62,0.5-1.12,1.12-1.12
							C277.03,427.62,277.53,428.12,277.53,428.74z"/>
						<path class="st3" d="M298.15,428.74c0,0.62-0.5,1.12-1.12,1.12c-0.62,0-1.12-0.5-1.12-1.12c0-0.62,0.5-1.12,1.12-1.12
							C297.65,427.62,298.15,428.12,298.15,428.74z"/>
						<path class="st3" d="M318.78,428.74c0,0.62-0.5,1.12-1.12,1.12c-0.62,0-1.12-0.5-1.12-1.12c0-0.62,0.5-1.12,1.12-1.12
							C318.27,427.62,318.78,428.12,318.78,428.74z"/>
						<circle class="st3" cx="286.72" cy="456.92" r="1.12"/>
						<path class="st3" d="M308.46,456.92c0,0.62-0.5,1.12-1.12,1.12s-1.12-0.5-1.12-1.12c0-0.62,0.5-1.12,1.12-1.12
							S308.46,456.3,308.46,456.92z"/>
						<path class="st3" d="M329.13,435.36c0,0.62-0.5,1.12-1.12,1.12c-0.62,0-1.12-0.5-1.12-1.12c0-0.62,0.5-1.12,1.12-1.12
							C328.63,434.24,329.13,434.74,329.13,435.36z"/>
						<circle class="st3" cx="338.33" cy="450.95" r="1.12"/>
						<path class="st3" d="M339.45,428.74c0,0.62-0.5,1.12-1.12,1.12c-0.62,0-1.12-0.5-1.12-1.12c0-0.62,0.5-1.12,1.12-1.12
							C338.94,427.62,339.45,428.12,339.45,428.74z"/>
						<path class="st3" d="M329.13,456.92c0,0.62-0.5,1.12-1.12,1.12c-0.62,0-1.12-0.5-1.12-1.12c0-0.62,0.5-1.12,1.12-1.12
							C328.63,455.8,329.13,456.3,329.13,456.92z"/>
					</g>
					<rect x="269.5" y="438.57" class="st4" width="73.3" height="8.12"/>
					<rect x="283.18" y="424.61" class="st4" width="8.12" height="36.04"/>
					<polygon class="st12" points="311.37,433.4 313.61,460.65 342.81,460.65 342.81,433.88 					"/>
				</g>
				<g>
					<polygon class="st44" points="357.97,434.99 314.27,434.99 316.51,460.65 353.96,460.65 					"/>
					<path class="st45" d="M314.27,434.99l16.62,16.28c1.82,1.78,4.69,1.92,6.66,0.31l20.42-16.59"/>
					<path class="st45" d="M314.27,434.99l15.41,13.52c2.57,2.26,6.37,2.43,9.13,0.42l19.16-13.94H314.27z"/>
				</g>
			</g>
		</g>
	</g>
</g>
<g id="mensajes">
	<g>
		<path class="st29" d="M203.82,124.65h-43.51c-13.78,0-25.05-11.27-25.05-25.05l0,0c0-13.78,11.27-25.05,25.05-25.05h43.51
			c13.78,0,25.05,11.27,25.05,25.05l0,0C228.88,113.38,217.6,124.65,203.82,124.65z"/>
		<polygon class="st29" points="201.26,121.97 216.74,135.86 220.3,118.95 		"/>
	</g>
	<text transform="matrix(1 0 0 1 162.2834 95.8351)"><tspan x="0" y="0" class="st3 st46 st47">Pino </tspan><tspan x="-13.29" y="16.61" class="st3 st46 st47">navidad</tspan></text>
	<g>
		<path class="st6" d="M279.82,59.18h43.51c13.78,0,25.05-7.52,25.05-16.72l0,0c0-9.19-11.27-16.72-25.05-16.72h-43.51
			c-13.78,0-25.05,7.52-25.05,16.72l0,0C254.77,51.65,266.04,59.18,279.82,59.18z"/>
		<polygon class="st6" points="282.38,57.39 266.9,66.65 263.34,55.38 		"/>
	</g>
	<text transform="matrix(1 0 0 1 272.906 47.253)" class="st3 st46 st47">Estrella</text>
	<g>
		<path class="st4" d="M188.89,324.86h-43.51c-13.78,0-25.05-7.59-25.05-16.86l0,0c0-9.27,11.27-16.86,25.05-16.86h43.51
			c13.78,0,25.05,7.59,25.05,16.86l0,0C213.94,317.27,202.67,324.86,188.89,324.86z"/>
		<polygon class="st4" points="186.33,323.05 201.81,332.4 205.37,321.02 		"/>
	</g>
	<text transform="matrix(1 0 0 1 142.7727 313.1792)" class="st3 st46 st47">Esfera</text>
	<g>
		<path class="st31" d="M303.8,312.21h31.95c10.12,0,18.4-7.52,18.4-16.71l0,0c0-9.19-8.28-16.71-18.4-16.71H303.8
			c-10.12,0-18.4,7.52-18.4,16.71l0,0C285.4,304.69,293.68,312.21,303.8,312.21z"/>
		<polygon class="st31" points="305.68,310.42 294.31,319.69 291.69,308.41 		"/>
	</g>
	<text transform="matrix(1 0 0 1 296.9835 301.5222)" class="st48 st46 st47">Listn</text>
	<g>
		<path class="st19" d="M416.84,393.69h43.51c13.78,0,25.05-7.52,25.05-16.71l0,0c0-9.19-11.27-16.71-25.05-16.71h-43.51
			c-13.78,0-25.05,7.52-25.05,16.71l0,0C391.79,386.17,403.06,393.69,416.84,393.69z"/>
		<polygon class="st19" points="419.4,391.9 403.92,401.17 400.36,389.89"/>
	</g>
	<text transform="matrix(1 0 0 1 400.4178 381.7675)" class="st3 st46 st47">Obsequios</text>
</g>
</svg>