<svg version="1.1" xmlns="http://www.w3.org/2000/svg" xmlns:xlink="http://www.w3.org/1999/xlink" x="0px" y="0px"
	 viewBox="0 0 1280 800" style="enable-background:new 0 0 1280 800;" xml:space="preserve">
<style type="text/css">
	.st0{opacity:0.1;fill:none;}
	.st1{fill:#AA05D3;}
	.st2{font-family:'CenturyGothic-Bold';}
	.st3{font-size:18px;}
	.st4{fill:#FF8C00;}
	.st5{fill:#FFCA48;}
	.st6{fill:#65AEE5;}
	.st7{fill:#9FE75B;}
</style>
<g id="botones">
	<ellipse id="btn_x5F_foto" class="st0" cx="641.5" cy="315" rx="90.5" ry="109"/>
	<circle id="btn_x5F_flor" class="st0" cx="402.5" cy="334.5" r="90.5"/>
	<circle id="btn_x5F_vela" class="st0" cx="739.5" cy="384.5" r="63.5"/>
	<ellipse id="btn_x5F_tequila" class="st0" cx="904.5" cy="473" rx="90.5" ry="109"/>
	<ellipse id="btn_x5F_vino" class="st0" cx="554.5" cy="498.5" rx="46.5" ry="83.5"/>
	<circle id="btn_x5F_calaverita" class="st0" cx="712" cy="533" r="49"/>
	<circle id="btn_x5F_chocolate" class="st0" cx="640" cy="525" r="49"/>
	<circle id="btn_x5F_pan" class="st0" cx="810" cy="546" r="70"/>
	<circle id="btn_x5F_papel" class="st0" cx="361" cy="631" r="49"/>
</g>
<g id="ofrenda">
	<image style="overflow:visible;" width="666" height="666" xlink:href="Ofrenda.png"  transform="matrix(1 0 0 1 307 75)">
	</image>
</g>
<g id="mensajes">
	<g id="msj_x5F_foto">
		<path class="st1" d="M583.11,215h-88.62c-14.63,0-26.49,11.86-26.49,26.49v25.95c0,14.63,11.86,26.49,26.49,26.49h74.63L592.6,315
			l5.4-25.64c7-4.77,11.6-12.8,11.6-21.91v-25.95C609.6,226.86,597.74,215,583.11,215z"/>
		<text transform="matrix(1 0 0 1 508.6577 247.6807)"><tspan x="0" y="0" class="st2 st3">Retrato</tspan><tspan x="-18" y="21.6" class="st2 st3">ser querido</tspan></text>
	</g>
	<g id="msj_x5F_flor">
		<path class="st4" d="M329.65,442.04h-88.62c-14.63,0-26.49,11.86-26.49,26.49v25.95c0,14.63,11.86,26.49,26.49,26.49h74.63
			l23.48,21.06l5.4-25.64c7-4.77,11.6-12.8,11.6-21.91v-25.95C356.14,453.9,344.28,442.04,329.65,442.04z"/>
		<text transform="matrix(1 0 0 1 271.0403 474.7232)"><tspan x="0" y="0" class="st2 st3">Flor</tspan><tspan x="-45.36" y="21.6" class="st2 st3">Cempasúchil </tspan></text>
	</g>
	<g id="msj_x5F_vela">
		<path class="st5" d="M798.03,251.04h88.62c14.63,0,26.49,11.86,26.49,26.49v25.95c0,14.63-11.86,26.49-26.49,26.49h-74.63
			l-23.48,21.06l-5.4-25.64c-7-4.77-11.6-12.8-11.6-21.91v-25.95C771.54,262.9,783.4,251.04,798.03,251.04z"/>
		<text transform="matrix(1 0 0 1 817.9954 300.7232)" class="st2 st3">Vela</text>
	</g>
	<g id="msj_x5F_tequila">
		<path class="st6" d="M944.41,334.04h88.33c14.58,0,26.41,11.86,26.41,26.49v25.95c0,14.63-11.82,26.49-26.41,26.49h-74.39
			l-23.4,21.06l-5.38-25.64c-6.98-4.77-11.56-12.8-11.56-21.91v-25.95C918,345.9,929.82,334.04,944.41,334.04z"/>
		<text transform="matrix(1 0 0 1 952.0178 377.7232)" class="st2 st3">Tequila</text>
	</g>
	<g id="msj_x5F_vino">
		<path class="st5" d="M543.65,357.04h-88.62c-14.63,0-26.49,11.86-26.49,26.49v25.95c0,14.63,11.86,26.49,26.49,26.49h74.63
			l23.48,21.06l5.4-25.64c7-4.77,11.6-12.8,11.6-21.91v-25.95C570.14,368.9,558.28,357.04,543.65,357.04z"/>
		<text transform="matrix(1 0 0 1 473.5359 402.7232)" class="st2 st3">Vino</text>
	</g>
	<g id="msj_x5F_calaverita">
		<path class="st7" d="M459.65,666.04h-88.62c-14.63,0-26.49-11.86-26.49-26.49V613.6c0-14.63,11.86-26.49,26.49-26.49h74.63
			l23.48-21.06l5.4,25.64c7,4.77,11.6,12.8,11.6,21.91v25.95C486.14,654.18,474.28,666.04,459.65,666.04z"/>
		<text id="calaveritadeazucar" transform="matrix(1 0 0 1 369.6213 620.7233)"><tspan x="0" y="0" class="st2 st3">Calaverita</tspan><tspan x="1.25" y="21.6" class="st2 st3">de azúcar</tspan></text>
	</g>
	<g id="msj_x5F_chocolate">
		<path class="st5" d="M656.03,664.04h88.62c14.63,0,26.49-11.86,26.49-26.49V611.6c0-14.63-11.86-26.49-26.49-26.49h-74.63
			l-23.48-21.06l-5.4,25.64c-7,4.77-11.6,12.8-11.6,21.91v25.95C629.54,652.18,641.4,664.04,656.03,664.04z"/>
		<text transform="matrix(1 0 0 1 654.8962 630.7232)" class="st2 st3">Chocolate</text>
	</g>
	<g id="msj_x5F_pan_00000108299512849999421800000003845446978950774924_">
		<path class="st7" d="M756.51,419.04h-88.33c-14.58,0-26.41,11.86-26.41,26.49v25.95c0,14.63,11.82,26.49,26.41,26.49h74.39
			l23.4,21.06l5.38-25.64c6.98-4.77,11.56-12.8,11.56-21.91v-25.95C782.91,430.9,771.09,419.04,756.51,419.04z"/>
		<text id="msj_x5F_pan" transform="matrix(1 0 0 1 681.8061 452.7232)"><tspan x="0" y="0" class="st2 st3">Pan de </tspan><tspan x="2.16" y="21.6" class="st2 st3">muerto</tspan></text>
	</g>
	<g id="msj_x5F_papel">
		<path class="st1" d="M334.51,764.04h-88.33c-14.58,0-26.41-11.86-26.41-26.49V711.6c0-14.63,11.82-26.49,26.41-26.49h74.39
			l23.4-21.06l5.38,25.64c6.98,4.77,11.56,12.8,11.56,21.91v25.95C360.91,752.18,349.09,764.04,334.51,764.04z"/>
		<text transform="matrix(1 0 0 1 262.5673 722.7232)"><tspan x="0" y="0" class="st2 st3">Papel </tspan><tspan x="-4.14" y="21.6" class="st2 st3">picado</tspan></text>
	</g>
</g>
</svg>
